<svg xmlns="http://www.w3.org/2000/svg" viewBox="0 0 210.96 409"><defs><style>.cls-1{fill:#2e2c7e;}.cls-2{fill:none;}</style></defs><title>Fichier 1</title><g id="Calque_2" data-name="Calque 2"><g id="Calque_1-2" data-name="Calque 1"><path class="cls-1" d="M209.63,3.06A6,6,0,0,0,201.46.77l-92.62,52.1A25.23,25.23,0,0,0,96,74.83V89.6H12.4A12.41,12.41,0,0,0,0,102v25.6a12.4,12.4,0,0,0,6.63,11L18.89,371.45a12.41,12.41,0,0,0,6.71,10.38V396.4A12.41,12.41,0,0,0,38,408.8H166a12.41,12.41,0,0,0,12.4-12.4V381.83a12.41,12.41,0,0,0,6.71-10.38l12.26-232.88a12.42,12.42,0,0,0,6.63-11V102a12.41,12.41,0,0,0-12.4-12.4H108V74.83a13.21,13.21,0,0,1,6.73-11.5l92.61-52.1a6,6,0,0,0,2.29-8.17ZM12,102a.4.4,0,0,1,.4-.4H96V128H12.4a.39.39,0,0,1-.4-.4ZM82.25,371.2,77.68,197.6h48.64l-4.57,173.6ZM77.36,185.6,76.16,140H96v45.6ZM18.73,140H64.16l1.19,45.6H21.12Zm3,57.6H65.67l4.57,173.6h-39a.39.39,0,0,1-.39-.37ZM166,396.8H38a.4.4,0,0,1-.4-.4V383.2H166.4v13.2a.4.4,0,0,1-.4.4Zm7.13-26a.4.4,0,0,1-.4.37h-39l4.57-173.6h43.92ZM191.6,101.6a.4.4,0,0,1,.4.4v25.6a.39.39,0,0,1-.4.4H172.4a6,6,0,1,0,0,12h12.87l-2.4,45.6H138.64l1.2-45.6h7a6,6,0,0,0,0-12H134l-.23,0h-.31l-.3,0-.29,0-.3.07-.29.07-.26.09-.29.11-.23.11-.31.14-.19.11-.31.19-.16.11-.31.23-.13.12-.3.27-.11.12-.28.3-.1.13-.25.33-.09.14c-.07.12-.15.23-.21.35l-.09.17a3.73,3.73,0,0,0-.16.35,1.21,1.21,0,0,0-.09.2l-.12.34a2.17,2.17,0,0,1-.07.24,2.66,2.66,0,0,0-.08.33,2,2,0,0,0,0,.26c0,.11,0,.22-.05.33a2.46,2.46,0,0,0,0,.28,1.94,1.94,0,0,0,0,.24l-1.36,51.76H108V140h.4a6,6,0,0,0,0-12H108V101.6Z"/><rect class="cls-2" width="210.96" height="409"/><path class="cls-1" d="M102,211.2a6,6,0,0,0-6,6V351.6a6,6,0,0,0,12,0V217.2a6,6,0,0,0-6-6Z"/></g></g></svg>