<svg xmlns="http://www.w3.org/2000/svg" viewBox="0 0 903.64 800.2"><defs><style>.cls-1{fill:#fff;}</style></defs><title>change</title><g id="Calque_2" data-name="Calque 2"><g id="Calque_1-2" data-name="Calque 1"><path class="cls-1" d="M903.62,237.1c-.5-10.8-8.8-20-20-20H480.82q-4.1,0-8.17,0l39.27-39.27L629,60.7,655.72,34c7.4-7.4,8-21,0-28.3s-20.4-7.9-28.3,0l-73.5,73.5L436.82,196.3,410.12,223a19.63,19.63,0,0,0-2.19,2.65c-.1.15-.21.29-.31.43h0a17.81,17.81,0,0,0-3.3,11c0,.44.07.87.12,1.3a19.8,19.8,0,0,0,5.68,12.9l73.5,73.5,117.1,117.1,26.7,26.7c7.4,7.4,21,8,28.3,0s7.9-20.4,0-28.3l-73.5-73.5Q527.41,312,472.52,257.1h354.6c18.6,0,37.2.5,55.7,0h.8C894.12,257.1,904.12,247.9,903.62,237.1Z"/><path class="cls-1" d="M492.92,574.12a17.9,17.9,0,0,0,3.3-11c0-.43-.08-.86-.12-1.29a19.82,19.82,0,0,0-5.68-12.91l-73.5-73.5L299.82,358.3l-26.7-26.7c-7.4-7.4-21-8-28.3,0s-7.9,20.4,0,28.3l73.5,73.5L428,543.1H76.12c-18.4,0-36.9-.5-55.3,0H20c-10.5,0-20.5,9.2-20,20s8.8,20,20,20h400.1l7.77,0L388.62,622.4,271.52,739.5l-26.7,26.7c-7.4,7.4-8,21,0,28.3s20.4,7.9,28.3,0l73.5-73.5,117.1-117.1,26.7-26.7a19.11,19.11,0,0,0,2.19-2.66l.3-.42Z"/></g></g></svg>