<?xml version="1.0" encoding="utf-8"?>
<!-- Generator: Adobe Illustrator 22.0.1, SVG Export Plug-In . SVG Version: 6.00 Build 0)  -->
<svg version="1.1" id="Calque_1" xmlns="http://www.w3.org/2000/svg" xmlns:xlink="http://www.w3.org/1999/xlink" x="0px" y="0px"
	 viewBox="0 0 903.6 800.2" style="enable-background:new 0 0 903.6 800.2;" xml:space="preserve">
<style type="text/css">
	.st0{fill:#312783;}
</style>
<title>change</title>
<g id="Calque_2_1_">
	<g id="Calque_1-2">
		<path class="st0" d="M903.6,237.1c-0.5-10.8-8.8-20-20-20H480.8c-2.7,0-5.5,0-8.2,0l39.3-39.3L629,60.7L655.7,34
			c7.4-7.4,8-21,0-28.3s-20.4-7.9-28.3,0l-73.5,73.5L436.8,196.3L410.1,223c-0.8,0.8-1.5,1.7-2.2,2.6c-0.1,0.1-0.2,0.3-0.3,0.4l0,0
			c-2.3,3.2-3.4,7.1-3.3,11c0,0.4,0.1,0.9,0.1,1.3c0.2,4.9,2.3,9.4,5.7,12.9l73.5,73.5l117.1,117.1l26.7,26.7c7.4,7.4,21,8,28.3,0
			s7.9-20.4,0-28.3l-73.5-73.5c-36.5-36.5-73.1-73.1-109.7-109.7h354.6c18.6,0,37.2,0.5,55.7,0h0.8
			C894.1,257.1,904.1,247.9,903.6,237.1z"/>
		<path class="st0" d="M492.9,574.1c2.3-3.2,3.4-7.1,3.3-11c0-0.4-0.1-0.9-0.1-1.3c-0.2-4.9-2.3-9.4-5.7-12.9l-73.5-73.5
			L299.8,358.3l-26.7-26.7c-7.4-7.4-21-8-28.3,0s-7.9,20.4,0,28.3l73.5,73.5L428,543.1H76.1c-18.4,0-36.9-0.5-55.3,0H20
			c-10.5,0-20.5,9.2-20,20s8.8,20,20,20h400.1h7.8l-39.2,39.3L271.5,739.5l-26.7,26.7c-7.4,7.4-8,21,0,28.3s20.4,7.9,28.3,0
			l73.5-73.5l117.1-117.1l26.7-26.7c0.8-0.8,1.5-1.7,2.2-2.7L492.9,574.1L492.9,574.1z"/>
	</g>
</g>
</svg>
