<svg xmlns="http://www.w3.org/2000/svg" viewBox="0 0 358.59 409.8"><defs><style>.cls-1{fill:#2e2c7e;}</style></defs><title>dessert</title><g id="Calque_2" data-name="Calque 2"><g id="Calque_1-2" data-name="Calque 1"><path class="cls-1" d="M121.7,147.4h38.4a6.5,6.5,0,0,0,0-13H121.7a6.5,6.5,0,0,0,0,13Z"/><path class="cls-1" d="M357.24,200.92h0a6.44,6.44,0,0,0-5.13-2.52h-9.59a38.47,38.47,0,0,0-28.81-64h-9.59a38.47,38.47,0,0,0-28.81-64H226.92a51.3,51.3,0,1,0-95.24,0H83.3a38.47,38.47,0,0,0-28.81,64h-9.6a38.46,38.46,0,0,0-28.8,64H6.5a6.46,6.46,0,0,0-5.14,2.52,6.54,6.54,0,0,0-1.16,5.6l46.25,179.2A32.09,32.09,0,0,0,77.53,409.8H281.06a32.09,32.09,0,0,0,31.08-24.08l46.25-179.2A6.54,6.54,0,0,0,357.24,200.92ZM217.38,211.4l-6,185.4H185.8V211.4Zm-44.58,0V396.8H147.19l-6-185.4ZM141,51.3a38.3,38.3,0,1,1,71.5,19.1H146.1A38.25,38.25,0,0,1,141,51.3ZM343.71,211.4,299.56,382.47a19.06,19.06,0,0,1-16.36,14.2L319.06,211.4ZM75.39,396.67A19.06,19.06,0,0,1,59,382.47L14.89,211.4H39.53ZM102.6,140.9a6.51,6.51,0,0,0-6.5-6.5H83.3a25.5,25.5,0,1,1,0-51h192a25.5,25.5,0,0,1,0,51H262.5a6.5,6.5,0,0,0,0,13h51.2a25.5,25.5,0,0,1,0,51H44.89a25.5,25.5,0,0,1,0-51H96.1A6.51,6.51,0,0,0,102.6,140.9Zm-.86,255.9H88.66L52.77,211.4h31Zm32.44,0H114.8L96.86,211.4H128.2ZM261.74,211.4,243.8,396.8H224.41l6-185.4Zm44.08,0L269.94,396.8H256.86L274.8,211.4Z"/><path class="cls-1" d="M179.3,38.6A12.72,12.72,0,0,1,192,51.3a6.5,6.5,0,1,0,13,0,25.73,25.73,0,0,0-25.7-25.7,6.5,6.5,0,0,0,0,13Z"/><path class="cls-1" d="M268.9,109h6.3a6.5,6.5,0,0,0,13-.1A12.92,12.92,0,0,0,275.3,96h-6.4a6.5,6.5,0,0,0,0,13Z"/><path class="cls-1" d="M217.7,109h25.6a6.5,6.5,0,0,0,0-13H217.7a6.5,6.5,0,0,0,0,13Z"/><path class="cls-1" d="M307.3,173h6.3a6.5,6.5,0,0,0,13-.1A12.92,12.92,0,0,0,313.7,160h-6.4a6.5,6.5,0,0,0,0,13Z"/><path class="cls-1" d="M211.3,173h70.4a6.5,6.5,0,0,0,0-13H211.3a6.5,6.5,0,0,0,0,13Z"/></g></g></svg>