<?xml version="1.0" encoding="utf-8"?>
<!-- Generator: Adobe Illustrator 22.0.1, SVG Export Plug-In . SVG Version: 6.00 Build 0)  -->
<svg version="1.1" id="Calque_1" xmlns:sketch="http://www.bohemiancoding.com/sketch/ns"
	 xmlns="http://www.w3.org/2000/svg" xmlns:xlink="http://www.w3.org/1999/xlink" x="0px" y="0px" viewBox="0 0 38 38.5"
	 style="enable-background:new 0 0 38 38.5;" xml:space="preserve">
<style type="text/css">
	.st0{fill:#FCBD22;}
</style>
<title>Power</title>
<desc>Created with Sketch.</desc>
<g sketch:type="MSPage">
	<path sketch:type="MSShapeGroup" class="st0" d="M28.7,3.2C28,2.8,27.1,3,26.6,3.7c-0.4,0.7-0.2,1.6,0.5,2.1
		C32,8.7,35,13.9,35,19.6c0,8.8-7.2,16-16,16s-16-7.2-16-16C3,14,6,8.7,10.9,5.8c0.7-0.4,0.9-1.3,0.5-2.1C11,3,10.1,2.8,9.3,3.2
		C3.5,6.6,0,12.9,0,19.5c0,10.5,8.5,19,19,19s19-8.5,19-19C38.1,12.9,34.5,6.6,28.7,3.2L28.7,3.2z M19.1,22.9c0.8,0,1.5-0.7,1.5-1.5
		V1.5c0-0.8-0.7-1.5-1.5-1.5c-0.8,0-1.5,0.7-1.5,1.5v19.9C17.6,22.3,18.2,22.9,19.1,22.9L19.1,22.9z"/>
</g>
</svg>
