<svg xmlns="http://www.w3.org/2000/svg" viewBox="0 0 22 22"><defs><style>.cls-1{fill:#fcbe27;}</style></defs><title>Profile</title><g id="Calque_2" data-name="Calque 2"><g id="Calque_1-2" data-name="Calque 1"><path class="cls-1" d="M11,0A11,11,0,1,0,22,11,11,11,0,0,0,11,0Zm0,1A10,10,0,1,1,1,11,10,10,0,0,1,11,1Zm0,2.5A3.49,3.49,0,0,0,9,9.83,6.51,6.51,0,0,0,4.5,16a.5.5,0,1,0,1,0,5.5,5.5,0,0,1,11,0,.5.5,0,1,0,1,0A6.51,6.51,0,0,0,13,9.83,3.49,3.49,0,0,0,11,3.5Zm0,1A2.5,2.5,0,1,1,8.5,7,2.49,2.49,0,0,1,11,4.5Z"/></g></g></svg>