<?xml version="1.0" encoding="utf-8"?>
<!-- Generator: Adobe Illustrator 22.0.1, SVG Export Plug-In . SVG Version: 6.00 Build 0)  -->
<svg version="1.1" id="Calque_1" xmlns="http://www.w3.org/2000/svg" xmlns:xlink="http://www.w3.org/1999/xlink" x="0px" y="0px"
	 viewBox="0 0 60 60" style="enable-background:new 0 0 60 60;" xml:space="preserve">
<style type="text/css">
	.st0{fill:#2E2C7E;}
</style>
<g>
	<path class="st0" d="M7,39c-2.2,0-4,1.8-4,4s1.8,4,4,4s4-1.8,4-4S9.2,39,7,39z M7,45c-1.1,0-2-0.9-2-2s0.9-2,2-2s2,0.9,2,2
		S8.1,45,7,45z"/>
	<path class="st0" d="M56,38c-0.5,0-1,0.5-1,1v4c0,0.5,0.5,1,1,1s1-0.5,1-1v-4C57,38.5,56.5,38,56,38z"/>
	<path class="st0" d="M56,45c-0.5,0-1,0.5-1,1v1c0,0.5,0.5,1,1,1s1-0.5,1-1v-1C57,45.5,56.5,45,56,45z"/>
	<path class="st0" d="M55,6c-0.5,0-1,0.4-1,1s0.5,1,1,1h1c0.5,0,1-0.4,1-1s-0.5-1-1-1H55z"/>
	<path class="st0" d="M44,6h-1c-0.5,0-1,0.4-1,1s0.5,1,1,1h1c0.5,0,1-0.4,1-1S44.5,6,44,6z"/>
	<path class="st0" d="M40,6h-1c-0.5,0-1,0.4-1,1s0.5,1,1,1h1c0.5,0,1-0.4,1-1S40.5,6,40,6z"/>
	<path class="st0" d="M51,6c-0.5,0-1,0.4-1,1s0.5,1,1,1h1c0.5,0,1-0.4,1-1s-0.5-1-1-1H51z"/>
	<path class="st0" d="M36,6h-1c-0.5,0-1,0.4-1,1s0.5,1,1,1h1c0.5,0,1-0.4,1-1S36.5,6,36,6z"/>
	<path class="st0" d="M32,6h-1c-0.5,0-1,0.4-1,1s0.5,1,1,1h1c0.5,0,1-0.4,1-1S32.5,6,32,6z"/>
	<path class="st0" d="M47,6c-0.5,0-1,0.4-1,1s0.5,1,1,1h1c0.5,0,1-0.4,1-1s-0.5-1-1-1H47z"/>
	<path class="st0" d="M59,21c-0.5,0-1,0.5-1,1v1c0,0.5,0.5,1,1,1s1-0.5,1-1v-1C60,21.4,59.5,21,59,21z"/>
	<path class="st0" d="M59,24.9c-0.5,0-1,0.5-1,1v0.8c0,0,0,0,0,0c-0.2-0.1-0.4-0.2-0.6-0.3c-0.1,0-0.1,0-0.2-0.1c0,0-0.1,0-0.1-0.1
		c0,0-0.1,0-0.1,0c-0.4-0.1-0.9-0.2-1.4-0.2H54h-0.9h-2.7h-0.9h-2.7h-0.9h-2.7h-0.9h-2.7h-0.9h-2.7h-0.9h-2.7h-0.9h-2.4
		c-0.2-0.3-0.5-0.5-0.9-0.5s-0.7,0.2-0.9,0.5H4.4C2,26,0,28,0,30.4v25.2C0,58,2,60,4.4,60h51.2c2.4,0,4.4-2,4.4-4.4V30.4v-0.5
		c0-0.1,0-0.3-0.1-0.4c-0.1-0.6-0.4-1.1-0.7-1.6c0.5-0.1,0.8-0.5,0.8-1v-1C60,25.4,59.5,24.9,59,24.9z M28.5,28h2.7h0.9h2.7h0.9h2.7
		h0.9h2.7h0.9h2.7h0.9h2.7h0.9H52v30H14V28h13H28.5z M2,55.6V30.4C2,29.1,3.1,28,4.4,28H12v30H4.4C3.1,58,2,56.9,2,55.6z M58,55.6
		c0,1.3-1.1,2.4-2.4,2.4H54V28h0h1.5c0.3,0,0.6,0.1,0.9,0.2c0.2,0.1,0.3,0.2,0.5,0.3c0.6,0.4,1,1.2,1,2L58,55.6L58,55.6z"/>
	<path class="st0" d="M57.8,3.5c0.2,0.4,0.5,0.6,0.9,0.6c0.1,0,0.2,0,0.4-0.1c0.5-0.2,0.8-0.8,0.5-1.3C59.5,2.3,59.3,2,59,1.6
		c-0.3-0.4-1-0.5-1.4-0.1s-0.5,1-0.2,1.4C57.6,3.1,57.7,3.3,57.8,3.5z"/>
	<path class="st0" d="M34.8,2h1c0.5,0,1-0.5,1-1s-0.5-1-1-1h-1c-0.5,0-1,0.4-1,1S34.2,2,34.8,2z"/>
	<path class="st0" d="M54.7,2h1c0.5,0,1-0.5,1-1s-0.5-1-1-1h-0.9c-0.5,0-1,0.4-1,1S54.1,2,54.7,2z"/>
	<path class="st0" d="M38.8,2h1c0.5,0,1-0.5,1-1s-0.5-1-1-1h-1c-0.5,0-1,0.4-1,1S38.2,2,38.8,2z"/>
	<path class="st0" d="M42.7,2h1c0.5,0,1-0.5,1-1s-0.5-1-1-1h-1c-0.5,0-1,0.4-1,1S42.2,2,42.7,2z"/>
	<path class="st0" d="M50.7,2h1c0.5,0,1-0.5,1-1s-0.5-1-1-1h-1c-0.5,0-1,0.4-1,1S50.1,2,50.7,2z"/>
	<path class="st0" d="M46.7,2h1c0.5,0,1-0.5,1-1s-0.5-1-1-1h-1c-0.5,0-1,0.4-1,1S46.2,2,46.7,2z"/>
	<path class="st0" d="M30.8,2c0.1,0,0.1,0,0.2,0c0.1,0,0.3,0,0.4,0h0.4c0.5,0,1-0.5,1-1s-0.5-1-1-1h-0.4c-0.3,0-0.5,0-0.8,0.1
		c-0.5,0.1-0.9,0.6-0.8,1.2C29.9,1.7,30.3,2,30.8,2z"/>
	<path class="st0" d="M59,5.1c-0.5,0-1,0.4-1,1v1c0,0.6,0.5,1,1,1s1-0.4,1-1v-1C60,5.5,59.5,5.1,59,5.1z"/>
	<path class="st0" d="M59,9c-0.5,0-1,0.4-1,1v1c0,0.6,0.5,1,1,1s1-0.4,1-1v-1C60,9.5,59.5,9,59,9z"/>
	<path class="st0" d="M28,24.5c0.5,0,1-0.5,1-1v-1c0-0.5-0.5-1-1-1s-1,0.5-1,1v1C27,24,27.5,24.5,28,24.5z"/>
	<path class="st0" d="M59,13c-0.5,0-1,0.4-1,1v1c0,0.6,0.5,1,1,1s1-0.4,1-1v-1C60,13.5,59.5,13,59,13z"/>
	<path class="st0" d="M59,17c-0.5,0-1,0.5-1,1v1c0,0.5,0.5,1,1,1s1-0.5,1-1v-1C60,17.4,59.5,17,59,17z"/>
	<path class="st0" d="M28,8.6c0.5,0,1-0.4,1-1v-1c0-0.6-0.5-1-1-1s-1,0.4-1,1v1C27,8.1,27.5,8.6,28,8.6z"/>
	<path class="st0" d="M27.9,4.6c0.1,0,0.1,0,0.2,0c0.5,0,0.9-0.3,1-0.8c0-0.2,0.1-0.5,0.2-0.7c0.3-0.5,0.1-1.1-0.4-1.4
		c-0.5-0.3-1.1-0.1-1.4,0.4c-0.2,0.4-0.4,0.8-0.5,1.2C27,4,27.3,4.5,27.9,4.6z"/>
	<path class="st0" d="M28,20.5c0.5,0,1-0.5,1-1v-1c0-0.5-0.5-1-1-1s-1,0.5-1,1v1C27,20.1,27.5,20.5,28,20.5z"/>
	<path class="st0" d="M28,16.5c0.5,0,1-0.5,1-1v-1c0-0.6-0.5-1-1-1s-1,0.4-1,1v1C27,16.1,27.5,16.5,28,16.5z"/>
	<path class="st0" d="M28,12.6c0.5,0,1-0.4,1-1v-1c0-0.6-0.5-1-1-1s-1,0.4-1,1v1C27,12.1,27.5,12.6,28,12.6z"/>
	<path class="st0" d="M4,22c0.6,0,1-0.5,1-1c0-6.1,4.9-11,11-11h2.6l-4.3,4.3c-0.4,0.4-0.4,1,0,1.4c0.2,0.2,0.4,0.3,0.7,0.3
		s0.5-0.1,0.7-0.3l6-6c0.1-0.1,0.2-0.2,0.2-0.3c0.1-0.2,0.1-0.5,0-0.8c0-0.1-0.1-0.2-0.2-0.3l-6-6c-0.4-0.4-1-0.4-1.4,0
		s-0.4,1,0,1.4L18.6,8H16C8.8,8,3,13.8,3,21C3,21.5,3.5,22,4,22z"/>
</g>
</svg>
