<svg xmlns="http://www.w3.org/2000/svg" viewBox="4433 6121.607 37.586 32.02">
  <defs>
    <style>
      .cls-1 {
        fill: #fff;
      }
    </style>
  </defs>
  <path id="panier" class="cls-1" d="M24.158,15.681a.906.906,0,0,0-1.313,0h0L15.72,22.807H13.657A3.592,3.592,0,0,0,10,26.417a3.629,3.629,0,0,0,2.954,3.61l2.063,12.7A5.64,5.64,0,0,0,20.6,47.42H37a5.638,5.638,0,0,0,5.579-4.735l2.11-12.7a3.65,3.65,0,0,0-.75-7.22H42.348l-7.173-7.079a.928.928,0,1,0-1.313,1.313l5.813,5.813H18.392l5.813-5.813A.951.951,0,0,0,24.158,15.681ZM40.707,42.4A3.731,3.731,0,0,1,37,45.545H20.6a3.731,3.731,0,0,1-3.7-3.141l-2.016-12.33H42.723Zm4.969-15.94A1.781,1.781,0,0,1,43.9,28.246H13.657a1.781,1.781,0,0,1,0-3.563H43.9a1.879,1.879,0,0,1,1.781,1.781Z" transform="translate(4423 6106.207)"/>
</svg>
