<?xml version="1.0" encoding="utf-8"?>
<!-- Generator: Adobe Illustrator 22.0.1, SVG Export Plug-In . SVG Version: 6.00 Build 0)  -->
<svg version="1.1" id="Calque_1" xmlns="http://www.w3.org/2000/svg" xmlns:xlink="http://www.w3.org/1999/xlink" x="0px" y="0px"
	 viewBox="0 0 706.5 324.9" style="enable-background:new 0 0 706.5 324.9;" xml:space="preserve">
<style type="text/css">
	.st0{display:none;opacity:0.3;}
	.st1{display:inline;}
	.st2{fill:#E1251B;}
	.st3{fill:#5C5C5C;}
	.st4{fill:#630D30;}
	.st5{fill:#FCBD22;}
	.st6{fill:#312783;}
</style>
<g class="st0">
	<g class="st1">
		<path class="st2" d="M-853.7,413.2c0,0,0.1-0.1,0.4-0.2c0.2-0.2,0.6-0.4,0.9-0.8c0.4-0.4,0.7-1,0.8-1.7s-0.1-1.6-0.7-2.3
			c-0.6-0.7-1.6-1.1-2.7-0.9c-1.1,0.1-2.2,0.8-3.2,1.7c-1,0.9-2,2.1-2.5,3.5c-0.6,1.4-1,3-1.1,4.6s0.1,3.3,0.9,4.8
			c0.7,1.5,2,2.7,3.6,3.6c0.8,0.5,1.7,0.8,2.6,1.1c0.9,0.3,1.9,0.6,2.9,0.7c1.9,0.3,4,0.2,6.1-0.3c4.1-1,8.2-3.5,11.2-7
			s5-8,5.3-12.6c0.2-2.3-0.1-4.6-0.8-6.7s-1.8-4.1-3-5.9c-1.3-1.8-2.9-3.4-4.6-4.8c-0.9-0.7-1.7-1.3-2.6-1.9
			c-0.5-0.3-0.9-0.6-1.4-0.9s-1-0.7-1.4-1c-1.9-1.4-3.6-2.9-5.1-4.7c-1.5-1.8-2.6-3.9-3.2-6.2c-0.5-2.3-0.4-4.7,0.4-6.7
			c0.8-2.1,2.2-3.7,3.7-5c3.1-2.5,6.7-3.4,9.9-3.2c3.1,0.2,5.7,1.5,7.3,3s2.5,3,3,4c0.2,0.5,0.4,0.9,0.5,1.2
			c0.1,0.3,0.2,0.4,0.2,0.4l-0.3,0.1c0,0-0.1-0.1-0.2-0.4c-0.1-0.2-0.4-0.6-0.7-1.1c-0.6-0.9-1.6-2.2-3.3-3.3c-1.6-1.1-3.9-2-6.6-2
			c-2.7,0.1-5.7,1.1-8.1,3.3c-2.4,2.1-3.8,5.5-2.8,9c0.5,1.7,1.4,3.4,2.6,4.9c0.6,0.8,1.3,1.5,2.1,2.2c0.7,0.7,1.5,1.4,2.4,2.1
			c0.4,0.3,0.8,0.6,1.3,1c0.5,0.3,0.9,0.7,1.4,1c1,0.7,1.9,1.4,2.8,2.2c0.9,0.8,1.8,1.6,2.6,2.5s1.6,1.9,2.3,2.9
			c1.4,2.1,2.4,4.4,3,6.8s0.6,5,0.3,7.4c-0.7,4.9-3,9.4-6.1,13s-6.9,6.6-11.3,8.2c-2.2,0.8-4.5,1.1-6.9,1c-2.3-0.2-4.5-0.8-6.5-1.9
			s-3.7-2.8-4.6-4.8c-0.9-2-1-4.2-0.8-6.1c0.3-1.9,0.9-3.7,1.8-5.2c0.4-0.8,1-1.5,1.5-2.1s1.1-1.2,1.7-1.6c1.2-1,2.6-1.7,4-1.8
			c1.4-0.1,2.8,0.5,3.5,1.4s0.9,2.1,0.6,2.9c-0.2,0.9-0.7,1.5-1.1,1.9c-0.4,0.4-0.8,0.6-1.1,0.8c-0.3,0.1-0.4,0.2-0.4,0.2
			L-853.7,413.2z"/>
	</g>
	<g class="st1">
		<path class="st2" d="M-825.4,413.9c0,0,0.6,0.1,1.8,0.2c1.2,0,3.1,0.1,5.4-0.6c1.1-0.3,2.4-0.8,3.6-1.6c0.6-0.4,1.2-0.9,1.7-1.4
			c0.5-0.6,1-1.2,1.4-1.9c0.9-1.4,1.4-3.2,1.7-5.1c0.1-0.5,0.1-1,0.1-1.5v-0.4v-0.2v-0.2c0-0.3,0-0.5,0-0.8c0-1-0.2-2-0.7-2.8
			s-1.4-1-2.4-0.8s-2,0.7-3,1.4c-1.9,1.3-3.7,3.2-5.1,5.4c-1.4,2.2-2.6,4.7-3.2,7.4c-0.6,2.7-0.5,5.7,0.5,8.4
			c0.5,1.4,1.2,2.7,2.2,3.9l0.2,0.2c0,0,0.1,0.1,0,0.1l0.1,0.1l0.4,0.4c0.1,0.2,0.3,0.2,0.4,0.3c0.1,0.1,0.2,0.2,0.4,0.3
			c0.5,0.4,1.2,0.5,1.9,0.6s1.4,0,2.1-0.1c0.7-0.2,1.5-0.4,2.2-0.7c1.5-0.6,2.9-1.5,4.2-2.5c2.7-2,5.3-4.4,7.8-7.1s4.8-5.5,7.1-8.6
			c4.6-6.1,8.8-12.8,12.6-20.1c3.8-7.3,7.3-15.1,9.2-23.5c0.9-4.2,1.5-8.6,0.5-12.7c-0.1-0.5-0.3-1-0.5-1.5
			c-0.1-0.2-0.2-0.5-0.3-0.7l-0.3-0.6l-0.4-0.7c-0.2-0.3-0.3-0.4-0.4-0.6c-0.3-0.4-0.6-0.7-1-0.9c-0.7-0.4-1.4-0.4-2.2,0
			s-1.6,1.1-2.3,1.9c-1.4,1.6-2.6,3.6-3.6,5.6c-1.1,2-2,4.2-2.8,6.3c-1.7,4.3-3.1,8.9-4.3,13.5s-2.1,9.4-2.8,14.2
			c-0.7,4.8-1.1,9.7-0.9,14.6c0.1,2.4,0.3,4.9,0.8,7.3s1.3,4.8,2.7,6.7c0.7,1,1.6,1.8,2.6,2.3c1,0.6,2.2,0.8,3.4,0.8
			c0.6,0,1.2,0,1.8-0.1c0.3-0.1,0.6-0.1,0.9-0.2l0.9-0.2c1.2-0.4,2.3-0.9,3.3-1.5c2.1-1.3,4-2.9,5.7-4.8c1.7-1.8,3.2-3.8,4.6-5.9
			c2.8-4.2,5.1-8.7,7.2-13.4c4-9.3,7-19.1,9-29.1c0.5-2.5,0.9-5,1.2-7.5s0.5-5,0.3-7.5c-0.1-1.2-0.2-2.5-0.6-3.4
			c0-0.1-0.1-0.2-0.2-0.3c0,0-0.1-0.2,0-0.1c0,0-0.2-0.2-0.1-0.1c0.2,0.2,0.4,0.1,0.2,0.1c-0.3,0.1-0.7,0.5-1.1,1
			c-0.8,0.9-1.5,1.9-2.1,3c-0.7,1.1-1.3,2.1-1.9,3.2c-2.5,4.4-4.7,9-6.8,13.6s-4.1,9.2-6,13.9c-3.9,9.3-7.5,18.6-10.8,27.9
			s-6.3,18.6-8.9,27.8c-1.3,4.6-2.5,9.2-3.5,13.8c-1,4.6-1.8,9.1-2.1,13.6c-0.1,2.2-0.2,4.5,0.2,6.5c0.2,1,0.5,1.9,0.9,2.5
			c0.5,0.6,0.9,0.8,1.6,0.9h0.8c0.3,0,0.4-0.1,0.7-0.1c0.4-0.1,0.9-0.2,1.3-0.4c0.9-0.3,1.8-0.8,2.6-1.4s1.5-1.3,2.2-2
			c0.7-0.8,1.3-1.6,1.9-2.4c2.4-3.4,4-7.4,5.2-11.4s1.9-8.1,2.2-12.1s0.2-8-0.6-11.8c-0.4-1.9-1-3.7-1.7-5.3
			c-0.8-1.6-1.8-3.1-3.1-4.3c-2.5-2.3-6.1-2.9-9.5-2.4c-1.7,0.3-3.4,0.8-5,1.4s-3.3,1.3-4.9,2c-0.8,0.4-1.6,0.7-2.3,1.1
			c-0.4,0.2-0.7,0.4-1,0.6c-0.1,0-0.1,0.1-0.2,0.1c0,0-0.1,0.1,0-0.1c0,0,0.3-0.5-0.1-1.1c-0.3-0.4-0.5-0.3-0.5-0.3
			c-0.1,0,0,0,0.1,0c0.3,0,0.7-0.1,1.1-0.1c0.4-0.1,0.8-0.1,1.2-0.2c0.8-0.2,1.6-0.4,2.4-0.6c3.2-0.8,6.3-1.7,9.3-2.6
			c11.9-3.6,22.2-7.2,30.6-10.3c8.4-3.1,14.9-5.9,19.2-8c2.2-1,3.8-1.9,4.9-2.5c1.1-0.6,1.6-1,1.6-1l0.2,0.2c0,0-0.5,0.4-1.6,1
			c-1.1,0.7-2.7,1.6-4.8,2.7c-4.3,2.2-10.7,5.2-19,8.6s-18.5,7.2-30.4,11.1c-3,1-6.1,1.9-9.3,2.8c-0.8,0.2-1.6,0.4-2.5,0.6
			c-0.4,0.1-0.8,0.2-1.3,0.3c-0.4,0.1-0.9,0.2-1.4,0.2c-0.1,0-0.3,0-0.6,0c-0.1-0.1-0.4-0.1-0.8-0.5c-0.5-0.7-0.1-1.3-0.1-1.4
			c0.2-0.3,0.4-0.4,0.5-0.5s0.2-0.2,0.3-0.2c0.4-0.3,0.8-0.5,1.2-0.7c0.8-0.4,1.6-0.8,2.4-1.2c1.6-0.7,3.2-1.4,4.9-2.1
			s3.5-1.3,5.5-1.6c1.9-0.3,4-0.4,6,0c1,0.2,2,0.6,3,1c0.9,0.5,1.8,1.1,2.6,1.8c1.6,1.4,2.8,3.2,3.8,5c0.9,1.9,1.6,3.9,2,5.9
			c0.9,4.1,1.1,8.3,0.8,12.5s-1,8.5-2.3,12.7c-1.2,4.2-2.9,8.4-5.6,12.3c-1.3,1.9-2.9,3.7-4.9,5.2c-1,0.7-2.1,1.4-3.3,1.8
			c-0.6,0.2-1.2,0.4-1.9,0.5c-0.3,0-0.7,0.1-1,0.1h-0.9c-0.8,0-1.6-0.2-2.3-0.6c-0.8-0.4-1.4-1-1.8-1.6c-0.9-1.2-1.2-2.6-1.5-3.8
			c-0.4-2.5-0.4-4.9-0.3-7.3c0.3-4.8,1.2-9.4,2.2-14.1s2.3-9.3,3.6-13.9c2.7-9.3,5.8-18.6,9.2-27.9s7-18.7,11-28
			c2-4.6,4.1-9.3,6.3-13.9s4.5-9.2,7-13.7c0.7-1.1,1.3-2.2,2-3.3c0.7-1.1,1.5-2.2,2.4-3.2c0.5-0.5,1-1,1.9-1.4
			c0.1,0,0.3-0.1,0.4-0.1c0.2,0,0.3-0.1,0.5,0c0.4,0,0.8,0.2,1.1,0.5c0.2,0.2,0.1,0.2,0.2,0.3c0.2,0.2,0.1,0.2,0.2,0.3
			c0.1,0.2,0.2,0.4,0.3,0.5c0.5,1.4,0.6,2.8,0.7,4.1c0.1,2.7-0.1,5.2-0.5,7.8c-0.3,2.6-0.8,5.1-1.3,7.6c-2.2,10.1-5.4,19.9-9.6,29.3
			c-2.1,4.7-4.5,9.2-7.3,13.5c-1.4,2.1-3,4.2-4.7,6c-1.7,1.9-3.7,3.6-5.9,4.9s-4.8,2.2-7.4,2.1c-1.3,0-2.7-0.3-3.8-0.9
			c-1.2-0.6-2.2-1.5-2.9-2.6c-1.5-2.1-2.3-4.6-2.9-7.1c-0.5-2.5-0.8-5-0.9-7.5c-0.2-5,0.1-9.9,0.7-14.8c0.6-4.9,1.5-9.7,2.5-14.4
			c1.1-4.7,2.4-9.3,4.1-13.8c0.8-2.2,1.7-4.4,2.8-6.6c1.1-2.1,2.2-4.2,3.8-6.1c0.8-0.9,1.7-1.8,3-2.5c0.6-0.3,1.4-0.6,2.2-0.5
			c0.4,0,0.8,0.1,1.2,0.2s0.7,0.3,1.1,0.5c0.6,0.4,1.1,0.9,1.6,1.4c0.2,0.3,0.5,0.6,0.6,0.8l0.5,0.7c0.1,0.2,0.1,0.2,0.1,0.3
			l0.1,0.2l0.2,0.4c0.2,0.3,0.3,0.6,0.4,0.9c0.3,0.6,0.4,1.2,0.6,1.8c0.6,2.4,0.7,4.8,0.6,7.1c-0.1,2.3-0.5,4.6-0.9,6.8
			c-0.9,4.4-2.4,8.6-4,12.6s-3.4,7.9-5.4,11.6c-3.9,7.4-8.3,14.2-13,20.3c-2.4,3.1-4.8,6-7.4,8.7c-2.6,2.7-5.2,5.2-8.2,7.3
			c-1.5,1-3,2-4.7,2.7c-0.8,0.4-1.7,0.6-2.6,0.8c-0.9,0.2-1.9,0.3-2.8,0.1c-1-0.1-1.9-0.4-2.7-1c-0.2-0.1-0.4-0.3-0.6-0.4
			c-0.2-0.2-0.4-0.3-0.5-0.5l-0.4-0.5l-0.1-0.1c-0.1-0.1-0.1-0.1-0.1-0.2l-0.2-0.3c-1-1.4-1.8-2.9-2.4-4.4c-1.1-3.2-1.1-6.5-0.4-9.4
			c0.7-3,2-5.6,3.6-7.9s3.5-4.2,5.7-5.7c1.1-0.7,2.3-1.3,3.6-1.5c0.7-0.1,1.4-0.1,2,0.2c0.7,0.2,1.3,0.7,1.6,1.3
			c0.7,1.1,0.8,2.4,0.9,3.5c0,0.3,0,0.6,0,0.8v0.2c0,0.1,0,0.1,0,0.2v0.4c0,0.5-0.1,1-0.2,1.5c-0.3,2-1,3.9-1.9,5.4
			c-0.5,0.8-1,1.4-1.6,2s-1.2,1.1-1.9,1.5c-1.3,0.8-2.6,1.3-3.8,1.5c-2.4,0.5-4.3,0.4-5.5,0.3s-1.9-0.3-1.9-0.3L-825.4,413.9z"/>
	</g>
	<g class="st1">
		<path class="st2" d="M-919.3,401.1c0,0-0.3-0.1-0.8-0.1s-1.3,0.1-2.3,0.5s-2.1,1.1-3.1,2.2c-1.1,1.1-2.1,2.6-2.7,4.4
			c-0.7,1.8-1,4-0.8,6.3c0.1,1.2,0.3,2.4,0.7,3.6c0,0.1,0.1,0.3,0.1,0.4l0.2,0.5c0.1,0.3,0.2,0.6,0.4,0.9c0.3,0.6,0.6,1.1,0.9,1.7
			c0.7,1.1,1.7,2,2.8,2.6s2.5,0.9,3.8,0.8c1.4-0.1,2.7-0.6,4-1.4c1.2-0.8,2.3-2,3.3-3.3c1.9-2.6,3.1-5.9,3.7-9.4
			c0.2-0.9,0.3-1.7,0.3-2.6s0-1.7-0.2-2.5c-0.3-1.6-1.1-3.1-2.3-4s-2.9-1.2-4.4-0.8c-1.5,0.4-2.8,1.5-3.1,2.9c-0.4,1.5,0,3.3,0.9,5
			c0.4,0.9,0.9,1.7,1.6,2.5c0.6,0.8,1.2,1.6,1.9,2.1c0.7,0.6,1.4,0.9,2,0.9s1.2-0.3,1.9-0.9c1.3-1.3,2.3-3.2,3.1-5.2
			c0.9-2,1.6-4.1,2.2-6.2c0.4-1.1,0.7-2.1,1.1-3.3c0.1-0.1,0.1-0.3,0.2-0.5c0-0.1,0.1-0.1,0.1-0.2c0.3-0.1-0.3-0.2,1.1-0.7
			c2.3,0.8,1.1,1.2,1.5,1.2c0,0.1,0,0.2,0,0.3c0,0.5,0,0.7-0.1,1l-0.2,1.7c-0.7,4.5-1.3,9-1.3,13.5c0,2.2,0.1,4.5,0.6,6.6
			c0.3,1,0.7,2,1.4,2.6c0.3,0.3,0.7,0.5,1.1,0.7c0.1,0,0.1,0,0.2,0h0.1h0.1c0.1,0,0.3,0,0.4,0.1c0.2,0,0.5,0,0.8,0
			c1,0,2-0.3,2.8-0.9s1.4-1.5,2-2.5c1-2,1.7-4.2,2.2-6.4c1.1-4.4,2-9,3.3-13.4l0.5-1.6c0.1-0.3,0.2-0.5,0.3-0.9
			c0.1-0.1-0.1,0,0.2-0.3c1.3,0.3,0.5,0.5,0.7,0.5c0,0.1,0,0.2,0,0.3v0.4c-0.2,1.1-0.3,2.2-0.5,3.4c-0.3,2.2-0.6,4.5-0.8,6.7
			s-0.3,4.4-0.3,6.6s0.2,4.3,0.8,6.2c0.3,0.9,0.9,1.7,1.4,1.9c0.2,0,0.3,0.1,0.5,0.1h0.2h0.1c0.1,0,0.2,0,0.3,0
			c0.4-0.1,0.8-0.2,1.2-0.4c1.6-0.9,2.8-2.5,3.7-4.2c1.9-3.5,3-7.4,3.3-11.1c0.1-1.9,0-3.7-0.6-5.2c-0.3-0.8-0.7-1.4-1.2-1.9
			c-0.3-0.2-0.5-0.4-0.9-0.6l-0.1-0.1c0,0-0.1,0,0,0h-0.1l-0.3-0.1c-0.2-0.1-0.3-0.1-0.5-0.1c-0.1,0-0.3,0-0.2,0c0,0,0.1,0,0.2-0.1
			c0.1-0.1,0.2-0.2,0.3-0.3c0.1-0.2,0-0.2,0-0.1s0.1,0.2,0.1,0.4c0.3,0.6,0.8,1.3,1.4,1.8c1.1,1.2,2.5,2.1,3.9,2.6s2.9,0.6,4.2,0.2
			s2.5-1.3,3.4-2.4c0.5-0.6,0.9-1.1,1.2-1.8c0.4-0.6,0.6-1.2,1.2-2.1c0.1-0.1,0.1-0.1,0.2-0.2c0.1-0.1,0.1-0.1,0.3-0.2
			c0.1-0.1,0.6-0.3,1.1,0.1c0.4,0.3,0.4,0.5,0.4,0.6s0,0.2,0.1,0.3c0,0.1,0,0.2,0,0.3c0,0.3,0,0.5-0.1,0.7c-0.1,0.4-0.1,0.8-0.2,1.1
			c-0.2,0.7-0.3,1.4-0.5,2.1c-1.3,5.5-2.2,10.3-2.5,14.3c-0.1,2-0.1,3.8,0.3,5.2c0.2,0.7,0.5,1.3,0.9,1.8c0.4,0.4,0.9,0.7,1.4,0.7
			c1,0.1,1.8-0.1,2.3-0.3c0.5-0.2,0.8-0.3,0.8-0.3c0.1,0,0.2,0,0.2,0.1s0,0.2-0.1,0.2l0,0c0,0-0.3,0.1-0.8,0.4
			c-0.5,0.2-1.3,0.6-2.5,0.5c-0.6,0-1.3-0.3-1.8-0.8s-0.9-1.2-1.2-2c-0.5-1.6-0.7-3.5-0.7-5.5c0-4.1,0.8-9.1,1.8-14.6
			c0.1-0.7,0.3-1.4,0.4-2.1c0.1-0.4,0.1-0.7,0.2-1c0-0.2,0-0.3,0-0.4l0,0c0,0,0,0,0,0.1s0,0.2,0.4,0.5s0.9,0.1,1,0.1
			c0.2-0.1,0.1-0.1,0.2-0.1l0,0c-0.3,0.4-0.6,1.2-1,1.9c-0.4,0.7-0.8,1.4-1.4,2.1c-1.1,1.3-2.5,2.6-4.4,3.2s-4,0.5-5.8-0.1
			c-1.8-0.7-3.5-1.8-4.9-3.2c-0.7-0.7-1.4-1.5-1.9-2.5c-0.1-0.3-0.2-0.6-0.3-0.9c-0.1-0.4-0.2-0.8,0.1-1.5c0.1-0.3,0.4-0.7,0.7-0.8
			c0.3-0.2,0.6-0.3,0.8-0.3c0.5-0.1,0.8,0,1.2,0c0.3,0.1,0.6,0.1,0.9,0.2l0.3,0.1h0.1l0.1,0.1l0.2,0.1c0.5,0.3,1.1,0.6,1.5,1
			c0.9,0.8,1.5,1.8,1.9,2.9c0.8,2.1,0.9,4.3,0.8,6.4c-0.1,2.1-0.6,4.2-1.2,6.2c-0.7,2-1.5,4-2.7,5.9c-0.6,0.9-1.2,1.9-2,2.7
			c-0.8,0.8-1.7,1.6-2.8,2.2c-0.6,0.3-1.2,0.5-1.8,0.6c-0.2,0-0.3,0-0.5,0h-0.3h-0.2c-0.3,0-0.7-0.1-1.1-0.2
			c-0.7-0.3-1.3-0.8-1.6-1.4c-0.4-0.6-0.6-1.1-0.8-1.7c-0.7-2.3-0.7-4.5-0.6-6.8c0.1-2.2,0.3-4.5,0.6-6.7s0.6-4.5,1-6.7
			c0.2-1.1,0.3-2.2,0.5-3.3v-0.4c0-0.1,0-0.1,0-0.2c0.2,0-0.6,0,0.7,0.3c0.2-0.2,0.1-0.1,0.1-0.1c-0.1,0.2-0.2,0.5-0.3,0.7l-0.5,1.6
			c-1.3,4.3-2.2,8.9-3.2,13.4c-0.5,2.3-1.1,4.5-2.1,6.7c-0.5,1.1-1.2,2.2-2.2,3c-1,0.9-2.3,1.3-3.6,1.4c-0.3,0-0.6,0-1,0
			c-0.2,0-0.3,0-0.5,0h-0.1h-0.1c-0.1,0-0.2,0-0.3-0.1c-0.7-0.2-1.4-0.5-1.9-1c-1.1-0.9-1.6-2.2-2-3.3c-0.8-2.4-0.9-4.8-1-7.1
			c-0.1-4.7,0.4-9.4,0.9-13.9l0.2-1.7c0-0.3,0-0.6,0-0.7c0,0,0,0,0,0.1c0.3,0-0.8,0.3,1.4,1.1c1.3-0.5,0.7-0.5,0.9-0.5l0,0
			c0,0.1-0.1,0.2-0.1,0.3c-0.4,0.9-0.7,2.1-1,3.1c-0.7,2.2-1.4,4.4-2.2,6.5c-0.4,1.1-0.9,2.1-1.5,3.2c-0.6,1-1.3,2.1-2.2,3
			c-0.5,0.5-1,0.9-1.7,1.2c-0.7,0.3-1.5,0.6-2.3,0.6s-1.6-0.2-2.2-0.5c-0.7-0.3-1.2-0.7-1.7-1.1c-1-0.8-1.8-1.7-2.5-2.7
			c-0.7-0.9-1.3-1.9-1.8-2.9s-1-2.2-1.2-3.4c-0.2-1.2-0.3-2.5,0.1-3.8c0.3-1.3,1-2.5,2-3.4s2.2-1.5,3.4-1.8c2.4-0.6,5.1-0.1,7.1,1.4
			c1,0.7,1.8,1.7,2.4,2.7c0.6,1,0.9,2.1,1.1,3.2c0.4,2.2,0.2,4.3-0.2,6.2c-0.8,3.8-2.2,7.5-4.4,10.5c-1.1,1.5-2.5,2.8-4.1,3.8
			s-3.4,1.6-5.2,1.7s-3.6-0.4-5-1.3c-1.5-0.9-2.6-2.1-3.4-3.4c-0.4-0.7-0.7-1.3-1-2c-0.1-0.3-0.3-0.7-0.4-1l-0.1-0.5
			c-0.1-0.2-0.1-0.3-0.1-0.5c-0.3-1.3-0.5-2.7-0.6-3.9c-0.1-2.6,0.4-4.9,1.3-6.8c0.9-1.9,2.1-3.4,3.3-4.5s2.4-1.8,3.5-2.1
			c1.1-0.4,2-0.4,2.5-0.3c0.6,0.1,0.8,0.2,0.9,0.2c0.1,0,0.1,0.1,0.1,0.2C-919.2,401-919.2,401.1-919.3,401.1z"/>
	</g>
	
		<text transform="matrix(1 0 0 1 -931.5145 453.9396)" style="display:inline;fill:#630D30; font-family:'Lobster1.4'; font-size:16.8589px;">Vos envies, vos idées</text>
	<g class="st1">
		<path class="st3" d="M-849.7,277.6"/>
	</g>
	<g class="st1">
		<g>
			<path class="st4" d="M-1001.7,435.9c0,0,0.1-0.4,0.4-1.3c0.2-0.9,0.6-2.2,0.9-3.9c0.3-1.7,0.5-3.8,0.5-6.3s-0.4-5.4-1.1-8.5
				c-0.7-3.1-1.9-6.5-3.4-10.1s-3.5-7.4-5.5-11.4c-2.1-4-4.4-8.3-6.5-13.1c-2-4.7-3.9-10-4.2-15.9c-0.4-5.8,1.1-12.1,4.5-17.4
				s8.4-9.6,14.2-12.7c5.8-3,12.4-4.9,19.2-5.4c3.4-0.3,6.9-0.1,10.3,0.4c3.4,0.5,6.9,1.5,10.1,2.9c3.2,1.5,6.3,3.5,8.8,6.1
				s4.5,5.7,5.9,9.2c1.4,3.4,2.1,7.1,2.3,10.8c0.2,3.7-0.1,7.5-0.7,11.1c-1.1,7.3-2.7,14.7-5.7,21.7c-1.5,3.5-3.4,6.8-5.2,10.1
				c-0.9,1.6-1.7,3.2-2.3,4.9c-0.6,1.7-1,3.4-1.2,5.2c-0.4,3.5-0.1,7.2,0.5,10.8c0.2,1.8,0.6,3.5,1.3,5s1.8,2.9,3.1,3.8
				c1.3,1,2.8,1.6,4.4,1.6c1.6,0.1,3.1-0.4,4.5-1.3s2.6-2.1,3.6-3.4c1-1.4,1.8-2.9,2.5-4.5c1.4-3.2,2.2-6.7,2.8-10.2
				s0.8-7.1,0.9-10.6c0.1-3.5,0-7.2,0-10.7v-0.7v-0.2c1.4,0-3.2-0.2,3.2,0v0.3v1.3c0,0.9-0.1,1.8-0.1,2.7c-0.1,1.8-0.2,3.5-0.3,5.3
				c-0.9,14.1-2.4,27.6-4.8,40.3c-1.2,6.4-2.6,12.5-4.3,18.3c-1.7,5.9-3.7,11.4-6.2,16.5c-1.3,2.6-2.6,5-4.2,7.2
				c-1.5,2.2-3,4.4-4.6,6.4c-3.1,4.1-6.4,7.8-10.2,10.5c-1.9,1.4-3.9,2.5-6.2,2.9c-1.1,0.2-2.3,0.2-3.4-0.1
				c-1.1-0.3-2.1-0.9-2.8-1.6c-1.5-1.5-2.3-3.4-2.7-5.2c-0.4-1.8-0.5-3.6-0.3-5.3c0.3-3.3,1.3-6.2,2.6-8.4c1.3-2.2,3.1-3.7,4.6-4.6
				c1.6-0.9,2.9-1.2,3.8-1.3c0.5-0.1,0.8-0.1,1-0.1s0.4,0,0.4,0c0.1,0,0.2,0.1,0.2,0.1c0,0.1-0.1,0.2-0.1,0.2l0,0c0,0-0.1,0-0.3,0
				s-0.6,0-1,0.1c-0.9,0.2-2.2,0.5-3.7,1.4s-3.1,2.4-4.3,4.6s-2.2,5-2.3,8.2c-0.1,1.6,0,3.3,0.4,5s1.2,3.4,2.5,4.7
				c0.7,0.6,1.5,1.1,2.4,1.3c0.9,0.2,1.9,0.2,2.9,0c2-0.4,3.9-1.5,5.6-2.8c3.6-2.7,6.7-6.4,9.8-10.4c1.5-2,3-4.2,4.4-6.4
				c1.4-2.2,2.7-4.6,3.8-7.1c4.5-10.1,7.5-21.9,9.6-34.5s3.6-26.1,4.3-40c0.1-1.7,0.2-3.5,0.3-5.3c0-0.9,0.1-1.8,0.1-2.6v-1.3v-0.4
				c6.3,0.1,1.8,0.2,3.2,0.2v0.2v0.7c0,3.6,0.1,7.1,0,10.8c-0.1,3.7-0.4,7.4-1,11c-0.6,3.7-1.5,7.4-3.1,10.9
				c-0.8,1.8-1.7,3.5-2.9,5.1s-2.6,3.1-4.4,4.2c-1.8,1.1-3.9,1.7-6.1,1.6c-2.2-0.1-4.3-0.9-5.9-2.2c-1.7-1.3-3-3-3.8-4.9
				c-0.9-1.8-1.3-3.9-1.5-5.8c-0.5-3.8-0.8-7.6-0.3-11.5c0.3-1.9,0.7-3.9,1.5-5.7c0.7-1.8,1.6-3.5,2.6-5.2c1.9-3.3,3.8-6.4,5.2-9.8
				c3-6.7,4.8-13.9,6-21.1c0.7-3.6,1.1-7.2,0.9-10.8c-0.1-3.6-0.7-7.1-1.9-10.5c-1.2-3.3-3.1-6.4-5.6-8.9c-2.4-2.5-5.3-4.5-8.5-6
				c-6.3-2.9-13.3-3.6-20-3c-6.6,0.7-13,2.7-18.5,5.8c-5.5,3.1-10.1,7.4-13.1,12.4c-1.5,2.5-2.6,5.2-3.2,7.9
				c-0.6,2.7-0.8,5.5-0.7,8.2c0.1,1.3,0.2,2.7,0.5,4c0.2,1.3,0.5,2.6,0.9,3.8c0.7,2.5,1.6,4.9,2.6,7.2c2,4.6,4.2,9,6.2,13.1
				c4.1,8.2,7.1,15.7,8.3,22.3c1.3,6.6,0.6,11.9-0.2,15.3c-0.4,1.7-0.9,3-1.2,3.9c-0.3,0.8-0.5,1.3-0.5,1.3c0,0.1-0.1,0.1-0.2,0.1
				C-1001.7,436.1-1001.7,436-1001.7,435.9z"/>
		</g>
		<g>
			<path class="st4" d="M-959.9,427.2c-27.3-9.4-41.7,8.9-41.7,8.9S-978.2,448-959.9,427.2z"/>
		</g>
		<g>
			<path class="st4" d="M-994.5,402.8c0,0-0.3-0.6-0.8-1.6c-0.5-1.1-1.2-2.6-2.1-4.7c-0.9-2-1.9-4.5-3-7.4s-2.2-6.2-3.2-9.9
				c-1-3.7-1.9-7.7-2.4-12.1c-0.5-4.3-0.5-9,0.2-13.7s2.1-9.6,4.9-13.8c2.7-4.2,6.9-7.6,12-9.2c1.2-0.4,2.6-0.6,3.9-0.7
				c1.3-0.1,2.6-0.1,3.9,0c2.6,0.2,5.1,0.6,7.6,1.4c2.4,0.8,4.8,2,6.8,3.6s3.7,3.5,5,5.6c2.6,4.3,3.5,9.1,3.6,13.5
				c0.2,4.5-0.5,8.6-1.2,12.3c-0.8,3.7-1.8,7.1-2.8,10s-1.9,5.4-2.8,7.5c-0.9,2-1.6,3.6-2.1,4.7s-0.8,1.6-0.8,1.6l-0.2-0.1
				c0,0,0.2-0.6,0.6-1.7c0.4-1.1,1-2.7,1.7-4.8c0.7-2.1,1.5-4.6,2.3-7.6c0.8-2.9,1.6-6.3,2.2-10c0.6-3.7,1-7.7,0.8-11.9
				c-0.2-4.2-1.1-8.6-3.3-12.4c-1.1-1.9-2.6-3.7-4.4-5.1c-1.8-1.4-3.9-2.6-6.1-3.4c-2.2-0.8-4.6-1.4-7-1.6s-4.9-0.3-7.2,0.3
				c-4.7,1.1-9,4.2-11.7,8.2c-1.4,2-2.4,4.3-3.1,6.5c-0.3,1.1-0.6,2.3-0.8,3.5s-0.3,2.3-0.4,3.5c-0.4,4.7,0.1,9.2,0.7,13.4
				c0.3,2.1,0.6,4.2,1.1,6.1c0.4,2,0.8,3.9,1.3,5.7c0.9,3.6,1.9,6.9,2.7,9.9c0.9,2.9,1.7,5.4,2.4,7.5s1.3,3.7,1.7,4.8
				c0.4,1.1,0.6,1.7,0.6,1.7L-994.5,402.8z"/>
		</g>
		<g>
			<path class="st4" d="M-999.5,428.5c0,0,1.8-1.9,5.1-4c0.8-0.5,1.7-1.1,2.7-1.6s2-1.1,3.2-1.5c1.1-0.5,2.3-0.9,3.5-1.3
				s2.5-0.7,3.8-0.9c1.3-0.2,2.6-0.4,3.9-0.5c0.6,0,1.3,0,1.9,0c0.6,0,1.3,0.1,1.9,0.1c0.6,0.1,1.2,0.1,1.8,0.2s1.2,0.2,1.7,0.3
				c0.5,0.1,1.1,0.3,1.6,0.4s1,0.3,1.5,0.5c0.9,0.3,1.8,0.7,2.5,1c0.7,0.4,1.3,0.6,1.8,0.9c1,0.6,1.5,0.9,1.5,0.9s-0.6-0.2-1.6-0.7
				c-0.5-0.2-1.2-0.4-1.9-0.7c-0.4-0.1-0.8-0.2-1.2-0.3c-0.4-0.1-0.9-0.3-1.3-0.4c-0.5-0.1-0.9-0.2-1.4-0.3c-0.5-0.1-1-0.2-1.6-0.3
				c-0.5-0.1-1.1-0.1-1.7-0.2c-0.6,0-1.1-0.1-1.7-0.1c-0.6,0-1.2,0-1.8,0s-1.2,0.1-1.8,0.1c-1.2,0.1-2.5,0.2-3.7,0.5
				c-1.2,0.2-2.5,0.5-3.7,0.8c-1.2,0.4-2.4,0.7-3.5,1.1c-2.2,0.8-4.3,1.8-6,2.6C-997.4,427-999.5,428.5-999.5,428.5z"/>
		</g>
		<g>
			<path class="st4" d="M-986,331.5c0,0,0.6,1.1,1.5,3.1c0.4,1,1,2.2,1.4,3.7c0.3,0.7,0.5,1.5,0.8,2.3s0.5,1.7,0.8,2.6
				s0.5,1.9,0.8,2.8c0.2,1,0.5,2,0.7,3.1c0.4,2.1,0.9,4.3,1.2,6.7c0.2,1.2,0.4,2.3,0.5,3.6c0.1,1.2,0.2,2.4,0.3,3.7
				c0,0.6,0.1,1.2,0.1,1.9c0,0.6,0,1.2,0,1.9c0,1.3,0.1,2.5,0.1,3.8c0,2.5-0.2,5-0.3,7.5c-0.2,2.5-0.5,4.9-0.8,7.2
				c-0.4,2.3-0.8,4.6-1.2,6.7c-0.1,0.5-0.2,1.1-0.3,1.6s-0.3,1-0.4,1.5c-0.3,1-0.5,1.9-0.7,2.8c-0.5,1.8-0.9,3.5-1.4,4.9
				s-0.9,2.7-1.3,3.7c-0.7,2.1-1.1,3.2-1.1,3.2s0.3-1.2,0.9-3.3c0.3-1.1,0.6-2.3,1-3.8s0.7-3.2,1.1-5c0.2-0.9,0.4-1.9,0.6-2.8
				c0.1-0.5,0.2-1,0.3-1.5s0.2-1,0.2-1.6c0.3-2.1,0.6-4.3,1-6.6c0.2-2.3,0.4-4.7,0.6-7.1c0.1-2.4,0.2-4.9,0.2-7.4
				c0-1.2,0-2.5-0.1-3.7c0-0.6,0-1.2,0-1.8c0-0.6-0.1-1.2-0.1-1.8c-0.1-1.2-0.2-2.4-0.3-3.6s-0.3-2.4-0.4-3.5
				c-0.2-2.3-0.6-4.5-1-6.6c-0.2-1.1-0.4-2.1-0.6-3c-0.2-1-0.4-1.9-0.6-2.8c-0.2-0.9-0.4-1.8-0.7-2.6c-0.2-0.8-0.5-1.6-0.7-2.3
				c-0.4-1.5-0.9-2.7-1.2-3.7c-0.4-1-0.7-1.8-0.9-2.4C-985.8,331.8-986,331.5-986,331.5z"/>
		</g>
	</g>
	<g class="st1">
		<path class="st2" d="M-930.7,359.8c0,0,0-0.1,0-0.3c0-0.2-0.1-0.4-0.3-0.7c-0.4-0.5-1.7-0.6-2.9,0c-1.3,0.6-2.7,1.8-3.9,3.5
			s-2.2,4-2.8,6.6s-1,5.7-0.5,8.8c0.1,0.8,0.3,1.6,0.6,2.3c0.3,0.7,0.6,1.5,1.1,1.9c0.5,0.5,1,0.6,1.6,0.4s1.3-0.8,1.9-1.4
			c1.2-1.3,2.1-3,3-4.8s1.6-3.7,2.4-5.7c0.8-2,1.5-4.1,2.3-6.2c0.4-1.1,0.7-2.1,1-3.2c0.2-0.5,0.3-1.1,0.4-1.6
			c0.1-0.3,0.1-0.5,0.1-0.7c0-0.1,0-0.2,0-0.2s0,0,0,0.1s0,0.1,0.2,0.3c0.1,0.1,0.3,0.3,0.5,0.4c0.3,0.1,0.4,0.1,0.6,0
			c0.2-0.1,0.2-0.1,0.2-0.1c0.1,0,0.1,0,0.1,0l0,0c0,0-0.1,0.1-0.2,0.2c-0.1,0.2-0.3,0.4-0.4,0.6c-0.1,0.2-0.3,0.5-0.4,0.7
			c-0.1,0.2-0.2,0.5-0.3,0.8c-0.4,1-0.7,2.2-1,3.3c-0.6,2.3-1.1,4.7-1.4,7.2c-0.3,2.5-0.5,5-0.3,7.4c0.1,0.6,0.2,1.2,0.4,1.6
			c0.1,0.5,0.4,0.9,0.6,1.1c0.2,0.2,0.4,0.2,0.7,0.3c0.3,0,0.8-0.2,1.3-0.4c0.5-0.3,1-0.5,1.5-0.9l0.4-0.2l0.4-0.3
			c0.3-0.2,0.5-0.4,0.7-0.6c0.9-0.9,1.8-1.8,2.7-2.9c1.7-2.1,3.3-4.3,4.8-6.7c3-4.7,5.7-9.8,8.3-15.1c2.5-5.3,4.9-10.8,6.8-16.5
			c0.9-2.8,1.8-5.8,2.2-8.7c0.1-0.7,0.2-1.4,0.2-2.1s0-1.4-0.2-1.8c-0.2-0.5-0.3-0.6-0.4-0.5c0.1,0,0,0-0.1,0.1
			c-0.2,0.1-0.3,0.3-0.5,0.6c-0.7,1.1-1.2,2.5-1.7,3.9s-0.8,2.9-1.2,4.4c-0.7,3-1.2,6.1-1.7,9.2c-1,6.2-1.8,12.4-2.6,18.7
			c-0.8,6.3-1.3,12.6-2.2,18.8l-0.1,0.6c0,0.2-0.1,0.4-0.1,0.6c-0.1,0.2-0.1,0.4-0.2,0.7l-0.1,0.2c0,0.1-0.1,0.1-0.2,0.2
			c-0.1,0.1-0.2,0.2-0.4,0.2c-0.2,0.1-0.4,0-0.5,0c-0.1-0.1-0.2-0.1-0.3-0.2c0-0.1-0.1-0.1-0.1-0.2c-0.1-0.1-0.1-0.2-0.2-0.3
			c-0.1-0.2-0.2-0.4-0.2-0.6c-0.1-0.4-0.2-0.8-0.3-1.2c-0.3-1.6-0.4-3.2-0.4-4.8c0-3.2,0.4-6.4,1.4-9.4s2.5-5.9,4.9-8
			c2.4-2.2,5.5-3.4,8.6-3.7c1.6-0.2,3.4,0.1,4.7,1.4c0.6,0.7,0.9,1.6,0.9,2.5s-0.3,1.7-0.6,2.4c-0.7,1.5-1.7,2.7-2.7,3.8
			c-1,1.1-2.2,2.2-3.3,3.1c-1.1,1-2.3,1.9-3.5,2.8s-2.4,1.7-3.7,2.5c-1.2,0.8-2.5,1.6-3.9,2.2c-0.7,0.3-1.4,0.6-2.4,0.7
			c-0.1,0-0.3,0-0.4,0c-0.2,0-0.3,0-0.5-0.1c-0.2,0-0.4-0.2-0.6-0.3c-0.2-0.2-0.4-0.4-0.5-0.7c-0.1-0.5-0.1-0.9,0-1.1
			c0.1-0.3,0.2-0.5,0.3-0.7c0.4-0.8,1-1.4,1.5-1.9c0.6-0.6,1.1-1,1.8-1.5c1.3-0.9,2.6-1.6,4.1-2s3.2-0.5,4.7-0.1
			c1.6,0.4,3,1.3,4.1,2.4c0.6,0.5,1,1.1,1.5,1.7l0.6,0.9c0.2,0.3,0.4,0.6,0.6,0.8c0.7,1,1.5,1.9,2.5,2.5c0.9,0.7,1.9,1.1,3,1.2
			c1,0.1,2.1-0.1,3.2-0.5c2.1-0.8,3.9-2.4,5.6-4.1c1.6-1.7,3-3.6,4.3-5.6c0.6-1,1.3-2,1.6-2.9c0.4-0.9,0.6-1.9,0.5-2.7
			c0-0.4-0.2-0.8-0.4-1.1c-0.2-0.3-0.5-0.6-0.8-0.9c-0.6-0.5-1.5-0.7-2.4-0.7c-1.8,0-3.6,0.8-5.1,1.9s-2.7,2.6-3.6,4.2
			c-1.8,3.1-2.4,6.7-1.6,9.7c0.4,1.5,1.2,2.8,2.2,3.7c1,0.9,2.3,1.4,3.6,1.6c2.6,0.4,5-0.3,6.9-1.1c2-0.8,3.5-1.7,4.8-2.5
			c1.2-0.8,2.2-1.4,2.8-1.9s0.9-0.7,0.9-0.7l0.2,0.2c0,0-0.3,0.3-0.9,0.8c-0.6,0.5-1.5,1.2-2.7,2.1s-2.8,1.9-4.8,2.8
			s-4.5,1.8-7.4,1.5c-1.5-0.2-3-0.7-4.3-1.8c-1.3-1.1-2.3-2.6-2.8-4.3c-0.6-1.7-0.6-3.6-0.4-5.5c0.1-0.9,0.3-1.9,0.7-2.8
			c0.1-0.5,0.3-0.9,0.5-1.4s0.4-0.8,0.6-1.3c1-1.8,2.2-3.5,4-4.9c1.7-1.4,3.9-2.5,6.4-2.5c1.2,0,2.6,0.2,3.8,1.1
			c1.2,0.8,2,2.2,2.2,3.6s-0.1,2.8-0.6,4c-0.5,1.3-1.1,2.2-1.8,3.3c-1.3,2.1-2.7,4.1-4.5,6s-3.8,3.7-6.5,4.8
			c-1.3,0.5-2.9,0.8-4.4,0.7c-1.6-0.2-3-0.8-4.2-1.7c-1.2-0.9-2.2-2-3.1-3.2c-0.2-0.3-0.4-0.6-0.6-0.9l-0.5-0.8
			c-0.3-0.5-0.7-1-1.1-1.4c-0.8-0.8-1.8-1.5-2.9-1.7c-1.1-0.3-2.3-0.3-3.5,0.1c-1.2,0.3-2.4,0.8-3.4,1.6c-0.5,0.4-1.1,0.8-1.5,1.2
			c-0.5,0.4-0.9,0.9-1.2,1.4c-0.1,0.1-0.1,0.2-0.1,0.3c0,0.1,0,0.1,0-0.1c0-0.1-0.1-0.2-0.2-0.3c-0.1-0.1-0.1-0.1-0.2-0.1
			c-0.1,0,0,0,0,0h0.1c0.5,0,1.1-0.3,1.7-0.5c1.2-0.5,2.5-1.2,3.7-1.9c2.4-1.5,4.9-3.1,7.2-4.9c1.1-0.9,2.2-1.9,3.3-2.9
			c1-1,1.9-2.2,2.6-3.4c0.3-0.6,0.5-1.3,0.6-1.9c0-0.6-0.1-1.2-0.5-1.7s-1-0.8-1.6-1c-0.7-0.2-1.3-0.2-2.1-0.1
			c-3,0.2-5.8,1.3-8.1,3.3c-2.2,2-3.8,4.7-4.7,7.6s-1.3,6-1.3,9.1c0,1.5,0.1,3.1,0.4,4.6c0.1,0.4,0.2,0.7,0.3,1.1
			c0.1,0.2,0.1,0.3,0.2,0.5c0,0.1,0.2,0.3,0.1,0.2c-0.1,0-0.1,0-0.2,0c-0.1,0.1-0.1,0-0.1,0.1l0,0v-0.1c0.1-0.1,0.1-0.3,0.1-0.4
			c0-0.2,0.1-0.4,0.1-0.6l0.1-0.6c0.7-6.2,1.1-12.6,1.7-18.9c0.6-6.3,1.2-12.6,2-18.9c0.4-3.1,0.9-6.3,1.6-9.4
			c0.3-1.6,0.7-3.1,1.1-4.7c0.2-0.8,0.5-1.5,0.8-2.3s0.6-1.5,1.1-2.3c0.3-0.4,0.5-0.8,1-1.2c0.5-0.4,1-0.8,2-0.8c0.1,0,0.2,0,0.4,0
			c0.1,0,0.2,0,0.2,0h0.1c-0.1,0,0.2,0.1,0.3,0.1c0.2,0.1,0.3,0.2,0.5,0.3c0.1,0.1,0.3,0.2,0.4,0.3c0.5,0.5,0.8,1,0.9,1.5
			c0.3,1,0.4,1.9,0.4,2.7c0,0.9-0.1,1.7-0.2,2.5c-0.4,3.2-1.3,6.2-2.2,9.2c-1.9,5.9-4.2,11.5-6.7,16.9s-5.3,10.6-8.4,15.5
			c-1.6,2.4-3.2,4.8-5,7c-0.9,1.1-1.9,2.2-3,3.2c-0.3,0.2-0.6,0.5-0.9,0.7l-0.4,0.3c-0.2,0.2-0.3,0.2-0.5,0.3
			c-0.6,0.4-1.3,0.8-2,1.2c-0.8,0.3-1.5,0.6-2.6,0.6c-0.5,0-1.1-0.1-1.6-0.3c-0.3-0.1-0.5-0.2-0.7-0.4c-0.2-0.2-0.4-0.3-0.6-0.5
			c-0.7-0.7-1.1-1.6-1.3-2.3c-0.3-0.8-0.4-1.5-0.5-2.2c-0.3-2.9,0-5.6,0.4-8.2s1-5.1,1.7-7.5c0.4-1.2,0.7-2.4,1.2-3.6
			c0.1-0.3,0.2-0.5,0.4-0.9c0.2-0.3,0.3-0.6,0.5-0.9s0.4-0.6,0.6-0.9c0.1-0.1,0.3-0.3,0.5-0.5l0.2-0.1c0,0,0.1-0.1,0.3-0.2
			c0.1-0.1,0.2-0.1,0.4-0.2c0.2,0,0.4-0.1,0.8,0c0.4,0.1,0.6,0.3,0.7,0.5c0.2,0.3,0.2,0.3,0.3,0.5c0.1,0.3,0.1,0.4,0.1,0.6
			c0,0.3,0,0.5,0,0.7c0,0.4-0.1,0.7-0.2,1c-0.1,0.6-0.3,1.2-0.5,1.8c-0.4,1.1-0.7,2.2-1.1,3.3c-0.8,2.2-1.6,4.2-2.4,6.2
			c-0.8,2-1.7,4-2.6,5.8c-1,1.9-2,3.6-3.5,5.2c-0.7,0.7-1.6,1.5-2.7,1.9c-0.6,0.2-1.3,0.2-1.9,0c-0.6-0.2-1.1-0.6-1.5-1
			c-0.8-0.8-1.2-1.7-1.4-2.6c-0.3-0.9-0.4-1.8-0.5-2.6c-0.2-1.7-0.1-3.4,0-5c0.2-1.5,0.5-3,0.9-4.4c0.8-2.7,1.9-5,3.2-6.8
			s2.9-3,4.3-3.5c1.4-0.6,2.8-0.5,3.4,0.3c0.3,0.3,0.3,0.7,0.4,0.9c0,0.2,0,0.3,0,0.3L-930.7,359.8z"/>
	</g>
</g>
<g>
	<path class="st5" d="M285.9,279.8l-22.5-35.4h15l13.9,23.5l14.2-23.5h14.6l-22.5,35.2v23.3h-12.9v-23.1H285.9z"/>
	<path class="st5" d="M323.4,273.8v-0.2c0-16.6,13.1-30.2,31.2-30.2c18,0,31,13.4,31,30.1v0.2c0,16.6-13.1,30.2-31.2,30.2
		S323.4,290.4,323.4,273.8z M372.1,273.8v-0.2c0-10-7.4-18.4-17.7-18.4c-10.4,0-17.5,8.2-17.5,18.2v0.2c0,10,7.4,18.4,17.7,18.4
		C364.9,292,372.1,283.8,372.1,273.8z"/>
	<path class="st5" d="M392.7,277.8v-33.4h12.9v33.1c0,9.5,4.8,14.5,12.6,14.5s12.6-4.8,12.6-14v-33.5h12.9v33
		c0,17.7-9.9,26.4-25.6,26.4C402.3,303.8,392.7,295,392.7,277.8z"/>
	<path class="st5" d="M453.4,244.4h26.7c7.4,0,13.2,2.1,17,5.9c3.3,3.3,5,7.9,5,13.4v0.2c0,9.4-5.1,15.4-12.5,18.1l14.3,20.9h-15
		l-12.5-18.7h-0.2h-9.9v18.7h-12.9V244.4z M479.3,272.8c6.3,0,9.9-3.3,9.9-8.3v-0.2c0-5.5-3.8-8.4-10.1-8.4h-12.8v16.8h13V272.8z"/>
	<path class="st5" d="M506.5,294.3l7.6-9.1c5.3,4.3,10.8,7.1,17.5,7.1c5.3,0,8.4-2.1,8.4-5.5v-0.2c0-3.3-2-4.9-11.8-7.4
		c-11.8-3-19.4-6.3-19.4-17.9v-0.2c0-10.6,8.5-17.6,20.5-17.6c8.5,0,15.8,2.7,21.7,7.4l-6.7,9.7c-5.2-3.6-10.3-5.8-15.2-5.8
		s-7.5,2.3-7.5,5.1v0.2c0,3.8,2.5,5.1,12.6,7.7c11.9,3.1,18.5,7.4,18.5,17.5v0.2c0,11.6-8.9,18.1-21.5,18.1
		C522.4,303.7,513.5,300.6,506.5,294.3z"/>
	<path class="st5" d="M560.6,244.4h44.1v11.4h-31.3v11.9H601v11.4h-27.6v12.3h31.7v11.4h-44.5V244.4z"/>
	<path class="st5" d="M613.2,244.4h12.9v46.8h29.2v11.7h-42v-58.5H613.2z"/>
	<path class="st5" d="M661.6,244.4h44.5v11.7h-31.7v12.4h27.9v11.7h-27.9v22.6h-12.9v-58.4H661.6z"/>
</g>
<path class="st6" d="M552.8,178.7c-1.6-1.5-4.2-1.4-5.7,0.2c-21.7,23.2-42.7,33.3-58,27.9c15.4-12.2,29.6-33.4,36.5-48.4
	c8.1-17.6,0.2-32.6-11.7-38.3c-19.7-9.4-38.6,6.4-48,25.1c-10,20.1-6.3,47.4,8.2,61.5c-4,1.8-7.7,2.6-11.1,2.3
	c-10.7-0.9-19.1-12.2-25.1-33.7c-0.9-3.2-2.3-5.9-4.1-8.2c5.5-4.3,9.9-8.7,13.3-13c8.9-11.5,11.3-22.7,6-29.1
	c-3.1-3.8-11-8.8-30,0.4c-3.8,1.8-7.3,3.8-10.6,6c30.1-55.1,37-103.4,24.3-114.5c-3-2.6-9.6-5.5-19.3,5
	c-18.1,19.5-25.3,82.7-28.1,132.3c-7.7,11.6-16.3,23.2-25.6,34.5c-15.2,18.5-21.2,18.4-22.3,18.1c-1.3-0.3-2.5-2.1-3.3-5.1
	c-0.5-1.9-0.9-4.3-1.1-6.9c17.3-24.7,26.7-66,21.4-80.2c-1.8-4.7-4.8-6-7.1-6.3c-3.8-0.4-6.8,2.4-11.7,18.3
	c-4.6,14.8-8.5,34.1-10,49.2c-0.6,6.3-0.9,11.8-0.7,16.5c-1.3,1.7-2.6,3.3-4,4.7c-8.4,9.1-17.2,12.5-26.2,9.9
	c-11.9-3.4-16.5-12.8-18.2-20.1c-4.6-19.1,4-45.5,19.6-60.2c7.2-6.7,18.9-13.8,33.9-9.1c2.1,0.7,4.4-0.5,5-2.7
	c0.7-2.1-0.5-4.4-2.7-5c-14.6-4.5-29.5-0.6-41.8,11c-17.5,16.5-27.1,46.3-21.9,68c3.3,13.4,11.5,22.4,23.8,25.9
	c11.7,3.4,23.3-0.6,33.7-11.5c1.3,5.2,3.6,8.8,6.9,10.5c7.8,4.2,18.2-2.1,32.9-19.9c1.3-1.6,2.7-3.3,4-4.9c0.3,0.7,0.7,1.3,1,1.6
	c1.7,1.9,4.2,2.5,8.3,1.9c1,12.5,4.6,21.4,4.7,21.4c0.7,1.8,2.6,2.8,4.5,2.4c1.9-0.4,3.2-2,3.2-4c0-1,0-10,0.4-23.8
	c10.6-4.2,21.9-10.1,31.2-16.5c1.3,1.4,2.2,3.2,2.8,5.5c6.9,25.1,17.8,38.4,32.2,39.6c0.7,0.1,1.4,0.1,2,0.1c5.4,0,11-1.7,16.9-5
	c5,2.9,10.5,4.3,16.4,4.3c9.5,0,29.2-4.2,55.3-32C554.5,182.8,554.4,180.2,552.8,178.7z M518.3,155c-4.4,9.6-13.1,24.1-24.2,36.1
	c-4.3,4.6-8.5,8.4-12.6,11.3c-13.5-11.1-17.4-35.5-8.3-53.7c7.4-14.8,17.9-23.4,28.8-23.4c3,0,5.8,0.6,8.4,1.9
	C518.6,131.2,524.5,141.5,518.3,155z M440.8,149.2c-3.3,4.2-7.9,8.6-13.7,13c-1.8-0.7-3.7-1.2-5.8-1.5c-6.7-0.7-15.3,1.2-24.3,5.6
	c0.1-2.4,0.2-4.9,0.4-7.4c5.9-10.8,15.8-19.7,29.4-26.2c11.9-5.7,18.3-5,20.3-2.6C448.7,132.3,448.5,139.2,440.8,149.2z
	 M417.6,168.6c-6.7,4.2-14.1,8-21.3,11c0-1.3,0.1-2.7,0.1-4C404.3,171.3,411.7,168.8,417.6,168.6z M398.5,139.8
	c3.1-43.3,10-96.2,25-112.4c2.8-3,5.4-4.8,7-4.8c0.4,0,0.8,0.1,1.1,0.4C439,29.4,436.3,76.6,398.5,139.8z M337.5,178.5
	c2-23.4,9.5-51.4,13.8-60.3C353.8,127.5,349.2,155.4,337.5,178.5z"/>
<path class="st5" d="M248,10c-22.8-16.2-53.7-9.8-70.5,5.7c-1.7,1.6-1.8,4.2-0.2,5.9s4.2,1.8,5.9,0.2c14-12.9,40.9-18.5,60-5
	c15.4,10.9,45.2,49.8-9.4,176c-3.8,8.7-10.8,26.8-15.5,50.1c-10.4-11.9-34-20.6-71.7-17.8c-32,2.3-63.7,13.7-74.8,34.2
	c-6.7-24.3-17.9-52.8-33.6-75.4C5.8,137.3-0.8,85.2,21.7,54.1c15-20.7,40.4-27.6,69.8-18.9c2.2,0.7,4.5-0.6,5.2-2.8
	s-0.6-4.5-2.8-5.2c-33-9.8-61.8-1.8-79,22c-28.4,39.3-12.2,98.3,16.4,139.5c18.8,27.1,30.9,62.8,36.3,88.6l0,0
	c0,0.4,0.1,0.8,0.3,1.2c1.6,8,2.6,14.9,2.9,20.3c-0.1,1.8-0.1,3.5,0.1,5.3v0.1v0.1c2,13.2,20.3,20.5,49.8,20.5
	c4.5,0,9.3-0.2,14.4-0.5c33.4-2.3,86.3-14.8,86.6-38.2V286c0.2-9.6,1-18.9,2.3-27.6c0.4-0.7,0.5-1.5,0.4-2.3c0-0.1,0-0.2,0-0.3
	c4.4-27.9,12.8-49.9,17-59.7C296.4,69.1,269.1,25,248,10z M75.9,276.7c-1.1-26.2,36.2-40.8,71.2-43.4c41.7-3.1,66.1,9.1,68.8,22.5
	c-0.6,3.9-1.1,8-1.5,12.1c-2.6-2.7-5.8-5-9.6-7c-27.7-14.3-88.1-7.5-117.4,13.2c-4.2,2.9-7.5,6.1-10.2,9.4
	C76.8,281.3,76.4,279.1,75.9,276.7z M134.5,316c-31,2.2-53.7-3.1-55.3-12.8c0-1.3,0-2.7-0.1-4.2c0.7-6.3,5-12.3,13.1-18
	c17.3-12.2,47.2-19.3,72.9-19.3c14.1,0,27,2.1,35.9,6.7c8.2,4.2,12.4,10.2,12.4,17.6C213.4,298.8,175.8,313.1,134.5,316z"/>
<path class="st6" d="M223.1,196.3c-1.6-1.3-3.9-1.1-5.2,0.4C204.4,212.4,199,212.2,198,212c-0.4-0.1-0.7-0.3-1-0.6
	c-1.1-1-1.3-2.8-0.7-4.2c39.6-86.6,22.3-141.2,13-160.9c-8.8-18.6-22.2-31.3-36.5-34.9c-14.6-3.6-25.4,5.3-37.6,21.3
	c-1.4,1.8-4.1,2-5.7,0.4c-8.2-8.2-16.6-12.1-25-11.5c-12.8,0.9-20.7,11.9-21.9,13.7C78.8,40,31,102.8,89.7,224.4
	c0.7,1.5,2.2,2.4,3.7,2.4c0.6,0,1.2-0.1,1.8-0.4c2.1-1,2.9-3.5,1.9-5.5C39.8,102.4,88.5,41.3,89,40.7c0.1-0.1,0.2-0.3,0.3-0.4
	c0.1-0.1,6.3-9.5,15.6-10.2c6.9-0.5,14.1,3.7,21.6,12.5c1.5,1.7,3.6,2.6,5.9,2.5c2.6-0.1,5-1.4,6.4-3.4
	c13.5-18.7,21.8-24.4,31.6-21.9c12,3,23.3,14,31,30.4c8.9,18.8,24.9,71.4-14.4,156.7c-2.1,4.7,0.7,10.6,4,12.4
	c7.4,4,19.4-1.7,32.7-17.2c1.4-1.6,1.1-4-0.5-5.3L223.1,196.3z"/>
<path class="st5" d="M138,178c-0.7,0-1.4-0.2-2-0.5c-1.6-0.9-2.4-2.9-2-4.7c0.1-0.5,0.3-1,0.6-1.4c1.8-4.6,17.1-47.4-4.1-87.1
	c-1.1-2-0.3-4.5,1.7-5.6s4.5-0.3,5.6,1.7c21.6,40.5,8.6,84.1,4.2,94.3l0,0l0,0c-0.5,1.2-0.9,1.9-1.1,2.1
	C140.1,177.6,139,178,138,178z"/>
<path class="st5" d="M35.1,100.4c-2,0-3.7-1.4-4.1-3.4c-3.2-16.9,4-39.3,21.5-47.7c2.1-1,4.6-0.1,5.5,1.9c1,2.1,0.1,4.5-1.9,5.5
	c-13.9,6.7-19.5,24.9-16.9,38.7c0.4,2.3-1.1,4.4-3.3,4.8C35.7,100.4,35.4,100.4,35.1,100.4z"/>
</svg>
