<?xml version="1.0" encoding="utf-8"?>
<!-- Generator: Adobe Illustrator 22.0.1, SVG Export Plug-In . SVG Version: 6.00 Build 0)  -->
<svg version="1.1" id="Calque_1" xmlns="http://www.w3.org/2000/svg" xmlns:xlink="http://www.w3.org/1999/xlink" x="0px" y="0px"
	 viewBox="0 0 278.1 324.9" style="enable-background:new 0 0 278.1 324.9;" xml:space="preserve">
<style type="text/css">
	.st0{display:none;opacity:0.3;}
	.st1{display:inline;}
	.st2{fill:#E1251B;}
	.st3{fill:#5C5C5C;}
	.st4{fill:#630D30;}
	.st5{fill:#FFFFFF;}
	.st6{fill:#312783;}
</style>
<g class="st0">
	<g class="st1">
		<path class="st2" d="M-853.7,413.2c0,0,0.1-0.1,0.4-0.2c0.2-0.2,0.6-0.4,0.9-0.8c0.4-0.4,0.7-1,0.8-1.7c0.1-0.7-0.1-1.6-0.7-2.3
			c-0.6-0.7-1.6-1.1-2.7-0.9c-1.1,0.1-2.2,0.8-3.2,1.7c-1,0.9-2,2.1-2.5,3.5c-0.6,1.4-1,3-1.1,4.6c-0.1,1.6,0.1,3.3,0.9,4.8
			c0.7,1.5,2,2.7,3.6,3.6c0.8,0.5,1.7,0.8,2.6,1.1c0.9,0.3,1.9,0.6,2.9,0.7c1.9,0.3,4,0.2,6.1-0.3c4.1-1,8.2-3.5,11.2-7
			c3-3.5,5-8,5.3-12.6c0.2-2.3-0.1-4.6-0.8-6.7c-0.7-2.1-1.8-4.1-3-5.9c-1.3-1.8-2.9-3.4-4.6-4.8c-0.9-0.7-1.7-1.3-2.6-1.9
			c-0.5-0.3-0.9-0.6-1.4-0.9c-0.5-0.3-1-0.7-1.4-1c-1.9-1.4-3.6-2.9-5.1-4.7c-1.5-1.8-2.6-3.9-3.2-6.2c-0.5-2.3-0.4-4.7,0.4-6.7
			c0.8-2.1,2.2-3.7,3.7-5c3.1-2.5,6.7-3.4,9.9-3.2c3.1,0.2,5.7,1.5,7.3,3c1.6,1.5,2.5,3,3,4c0.2,0.5,0.4,0.9,0.5,1.2
			c0.1,0.3,0.2,0.4,0.2,0.4l-0.3,0.1c0,0-0.1-0.1-0.2-0.4c-0.1-0.2-0.4-0.6-0.7-1.1c-0.6-0.9-1.6-2.2-3.3-3.3c-1.6-1.1-3.9-2-6.6-2
			c-2.7,0.1-5.7,1.1-8.1,3.3c-2.4,2.1-3.8,5.5-2.8,9c0.5,1.7,1.4,3.4,2.6,4.9c0.6,0.8,1.3,1.5,2.1,2.2c0.7,0.7,1.5,1.4,2.4,2.1
			c0.4,0.3,0.8,0.6,1.3,1c0.5,0.3,0.9,0.7,1.4,1c1,0.7,1.9,1.4,2.8,2.2c0.9,0.8,1.8,1.6,2.6,2.5c0.8,0.9,1.6,1.9,2.3,2.9
			c1.4,2.1,2.4,4.4,3,6.8c0.6,2.4,0.6,5,0.3,7.4c-0.7,4.9-3,9.4-6.1,13c-3.1,3.6-6.9,6.6-11.3,8.2c-2.2,0.8-4.5,1.1-6.9,1
			c-2.3-0.2-4.5-0.8-6.5-1.9c-2-1.1-3.7-2.8-4.6-4.8c-0.9-2-1-4.2-0.8-6.1c0.3-1.9,0.9-3.7,1.8-5.2c0.4-0.8,1-1.5,1.5-2.1
			c0.5-0.6,1.1-1.2,1.7-1.6c1.2-1,2.6-1.7,4-1.8c1.4-0.1,2.8,0.5,3.5,1.4c0.7,0.9,0.9,2.1,0.6,2.9c-0.2,0.9-0.7,1.5-1.1,1.9
			c-0.4,0.4-0.8,0.6-1.1,0.8c-0.3,0.1-0.4,0.2-0.4,0.2L-853.7,413.2z"/>
	</g>
	<g class="st1">
		<path class="st2" d="M-825.4,413.9c0,0,0.6,0.1,1.8,0.2c1.2,0,3.1,0.1,5.4-0.6c1.1-0.3,2.4-0.8,3.6-1.6c0.6-0.4,1.2-0.9,1.7-1.4
			c0.5-0.6,1-1.2,1.4-1.9c0.9-1.4,1.4-3.2,1.7-5.1c0.1-0.5,0.1-1,0.1-1.5l0-0.4l0-0.2l0-0.2c0-0.3,0-0.5,0-0.8c0-1-0.2-2-0.7-2.8
			c-0.5-0.8-1.4-1-2.4-0.8c-1,0.2-2,0.7-3,1.4c-1.9,1.3-3.7,3.2-5.1,5.4c-1.4,2.2-2.6,4.7-3.2,7.4c-0.6,2.7-0.5,5.7,0.5,8.4
			c0.5,1.4,1.2,2.7,2.2,3.9l0.2,0.2c0,0,0.1,0.1,0,0.1l0.1,0.1l0.4,0.4c0.1,0.2,0.3,0.2,0.4,0.3c0.1,0.1,0.2,0.2,0.4,0.3
			c0.5,0.4,1.2,0.5,1.9,0.6c0.7,0.1,1.4,0,2.1-0.1c0.7-0.2,1.5-0.4,2.2-0.7c1.5-0.6,2.9-1.5,4.2-2.5c2.7-2,5.3-4.4,7.8-7.1
			c2.5-2.7,4.8-5.5,7.1-8.6c4.6-6.1,8.8-12.8,12.6-20.1c3.8-7.3,7.3-15.1,9.2-23.5c0.9-4.2,1.5-8.6,0.5-12.7c-0.1-0.5-0.3-1-0.5-1.5
			c-0.1-0.2-0.2-0.5-0.3-0.7l-0.3-0.6l-0.4-0.7c-0.2-0.3-0.3-0.4-0.4-0.6c-0.3-0.4-0.6-0.7-1-0.9c-0.7-0.4-1.4-0.4-2.2,0
			c-0.8,0.4-1.6,1.1-2.3,1.9c-1.4,1.6-2.6,3.6-3.6,5.6c-1.1,2-2,4.2-2.8,6.3c-1.7,4.3-3.1,8.9-4.3,13.5c-1.2,4.6-2.1,9.4-2.8,14.2
			c-0.7,4.8-1.1,9.7-0.9,14.6c0.1,2.4,0.3,4.9,0.8,7.3c0.5,2.4,1.3,4.8,2.7,6.7c0.7,1,1.6,1.8,2.6,2.3c1,0.6,2.2,0.8,3.4,0.8
			c0.6,0,1.2,0,1.8-0.1c0.3-0.1,0.6-0.1,0.9-0.2l0.9-0.2c1.2-0.4,2.3-0.9,3.3-1.5c2.1-1.3,4-2.9,5.7-4.8c1.7-1.8,3.2-3.8,4.6-5.9
			c2.8-4.2,5.1-8.7,7.2-13.4c4-9.3,7-19.1,9-29.1c0.5-2.5,0.9-5,1.2-7.5c0.3-2.5,0.5-5,0.3-7.5c-0.1-1.2-0.2-2.5-0.6-3.4
			c0-0.1-0.1-0.2-0.2-0.3c0,0-0.1-0.2,0-0.1c0,0-0.2-0.2-0.1-0.1c0.2,0.2,0.4,0.1,0.2,0.1c-0.3,0.1-0.7,0.5-1.1,1
			c-0.8,0.9-1.5,1.9-2.1,3c-0.7,1.1-1.3,2.1-1.9,3.2c-2.5,4.4-4.7,9-6.8,13.6c-2.1,4.6-4.1,9.2-6,13.9c-3.9,9.3-7.5,18.6-10.8,27.9
			c-3.3,9.3-6.3,18.6-8.9,27.8c-1.3,4.6-2.5,9.2-3.5,13.8c-1,4.6-1.8,9.1-2.1,13.6c-0.1,2.2-0.2,4.5,0.2,6.5c0.2,1,0.5,1.9,0.9,2.5
			c0.5,0.6,0.9,0.8,1.6,0.9l0.8,0c0.3,0,0.4-0.1,0.7-0.1c0.4-0.1,0.9-0.2,1.3-0.4c0.9-0.3,1.8-0.8,2.6-1.4c0.8-0.6,1.5-1.3,2.2-2
			c0.7-0.8,1.3-1.6,1.9-2.4c2.4-3.4,4-7.4,5.2-11.4c1.2-4,1.9-8.1,2.2-12.1c0.3-4,0.2-8-0.6-11.8c-0.4-1.9-1-3.7-1.7-5.3
			c-0.8-1.6-1.8-3.1-3.1-4.3c-2.5-2.3-6.1-2.9-9.5-2.4c-1.7,0.3-3.4,0.8-5,1.4c-1.6,0.6-3.3,1.3-4.9,2c-0.8,0.4-1.6,0.7-2.3,1.1
			c-0.4,0.2-0.7,0.4-1,0.6c-0.1,0-0.1,0.1-0.2,0.1c0,0-0.1,0.1,0-0.1c0,0,0.3-0.5-0.1-1.1c-0.3-0.4-0.5-0.3-0.5-0.3
			c-0.1,0,0,0,0.1,0c0.3,0,0.7-0.1,1.1-0.1c0.4-0.1,0.8-0.1,1.2-0.2c0.8-0.2,1.6-0.4,2.4-0.6c3.2-0.8,6.3-1.7,9.3-2.6
			c11.9-3.6,22.2-7.2,30.6-10.3c8.4-3.1,14.9-5.9,19.2-8c2.2-1,3.8-1.9,4.9-2.5c1.1-0.6,1.6-1,1.6-1l0.2,0.2c0,0-0.5,0.4-1.6,1
			c-1.1,0.7-2.7,1.6-4.8,2.7c-4.3,2.2-10.7,5.2-19,8.6c-8.3,3.4-18.5,7.2-30.4,11.1c-3,1-6.1,1.9-9.3,2.8c-0.8,0.2-1.6,0.4-2.5,0.6
			c-0.4,0.1-0.8,0.2-1.3,0.3c-0.4,0.1-0.9,0.2-1.4,0.2c-0.1,0-0.3,0-0.6,0c-0.1-0.1-0.4-0.1-0.8-0.5c-0.5-0.7-0.1-1.3-0.1-1.4
			c0.2-0.3,0.4-0.4,0.5-0.5c0.1-0.1,0.2-0.2,0.3-0.2c0.4-0.3,0.8-0.5,1.2-0.7c0.8-0.4,1.6-0.8,2.4-1.2c1.6-0.7,3.2-1.4,4.9-2.1
			c1.7-0.7,3.5-1.3,5.5-1.6c1.9-0.3,4-0.4,6,0c1,0.2,2,0.6,3,1c0.9,0.5,1.8,1.1,2.6,1.8c1.6,1.4,2.8,3.2,3.8,5
			c0.9,1.9,1.6,3.9,2,5.9c0.9,4.1,1.1,8.3,0.8,12.5c-0.3,4.2-1,8.5-2.3,12.7c-1.2,4.2-2.9,8.4-5.6,12.3c-1.3,1.9-2.9,3.7-4.9,5.2
			c-1,0.7-2.1,1.4-3.3,1.8c-0.6,0.2-1.2,0.4-1.9,0.5c-0.3,0-0.7,0.1-1,0.1l-0.9,0c-0.8,0-1.6-0.2-2.3-0.6c-0.8-0.4-1.4-1-1.8-1.6
			c-0.9-1.2-1.2-2.6-1.5-3.8c-0.4-2.5-0.4-4.9-0.3-7.3c0.3-4.8,1.2-9.4,2.2-14.1c1-4.7,2.3-9.3,3.6-13.9c2.7-9.3,5.8-18.6,9.2-27.9
			c3.4-9.3,7-18.7,11-28c2-4.6,4.1-9.3,6.3-13.9c2.2-4.6,4.5-9.2,7-13.7c0.7-1.1,1.3-2.2,2-3.3c0.7-1.1,1.5-2.2,2.4-3.2
			c0.5-0.5,1-1,1.9-1.4c0.1,0,0.3-0.1,0.4-0.1c0.2,0,0.3-0.1,0.5,0c0.4,0,0.8,0.2,1.1,0.5c0.2,0.2,0.1,0.2,0.2,0.3
			c0.2,0.2,0.1,0.2,0.2,0.3c0.1,0.2,0.2,0.4,0.3,0.5c0.5,1.4,0.6,2.8,0.7,4.1c0.1,2.7-0.1,5.2-0.5,7.8c-0.3,2.6-0.8,5.1-1.3,7.6
			c-2.2,10.1-5.4,19.9-9.6,29.3c-2.1,4.7-4.5,9.2-7.3,13.5c-1.4,2.1-3,4.2-4.7,6c-1.7,1.9-3.7,3.6-5.9,4.9c-2.2,1.3-4.8,2.2-7.4,2.1
			c-1.3,0-2.7-0.3-3.8-0.9c-1.2-0.6-2.2-1.5-2.9-2.6c-1.5-2.1-2.3-4.6-2.9-7.1c-0.5-2.5-0.8-5-0.9-7.5c-0.2-5,0.1-9.9,0.7-14.8
			c0.6-4.9,1.5-9.7,2.5-14.4c1.1-4.7,2.4-9.3,4.1-13.8c0.8-2.2,1.7-4.4,2.8-6.6c1.1-2.1,2.2-4.2,3.8-6.1c0.8-0.9,1.7-1.8,3-2.5
			c0.6-0.3,1.4-0.6,2.2-0.5c0.4,0,0.8,0.1,1.2,0.2c0.4,0.1,0.7,0.3,1.1,0.5c0.6,0.4,1.1,0.9,1.6,1.4c0.2,0.3,0.5,0.6,0.6,0.8
			l0.5,0.7c0.1,0.2,0.1,0.2,0.1,0.3l0.1,0.2l0.2,0.4c0.2,0.3,0.3,0.6,0.4,0.9c0.3,0.6,0.4,1.2,0.6,1.8c0.6,2.4,0.7,4.8,0.6,7.1
			c-0.1,2.3-0.5,4.6-0.9,6.8c-0.9,4.4-2.4,8.6-4,12.6c-1.6,4-3.4,7.9-5.4,11.6c-3.9,7.4-8.3,14.2-13,20.3c-2.4,3.1-4.8,6-7.4,8.7
			c-2.6,2.7-5.2,5.2-8.2,7.3c-1.5,1-3,2-4.7,2.7c-0.8,0.4-1.7,0.6-2.6,0.8c-0.9,0.2-1.9,0.3-2.8,0.1c-1-0.1-1.9-0.4-2.7-1
			c-0.2-0.1-0.4-0.3-0.6-0.4c-0.2-0.2-0.4-0.3-0.5-0.5l-0.4-0.5l-0.1-0.1c-0.1-0.1-0.1-0.1-0.1-0.2l-0.2-0.3c-1-1.4-1.8-2.9-2.4-4.4
			c-1.1-3.2-1.1-6.5-0.4-9.4c0.7-3,2-5.6,3.6-7.9c1.6-2.3,3.5-4.2,5.7-5.7c1.1-0.7,2.3-1.3,3.6-1.5c0.7-0.1,1.4-0.1,2,0.2
			c0.7,0.2,1.3,0.7,1.6,1.3c0.7,1.1,0.8,2.4,0.9,3.5c0,0.3,0,0.6,0,0.8l0,0.2c0,0.1,0,0.1,0,0.2l0,0.4c0,0.5-0.1,1-0.2,1.5
			c-0.3,2-1,3.9-1.9,5.4c-0.5,0.8-1,1.4-1.6,2c-0.6,0.6-1.2,1.1-1.9,1.5c-1.3,0.8-2.6,1.3-3.8,1.5c-2.4,0.5-4.3,0.4-5.5,0.3
			c-1.2-0.1-1.9-0.3-1.9-0.3L-825.4,413.9z"/>
	</g>
	<g class="st1">
		<path class="st2" d="M-919.3,401.1c0,0-0.3-0.1-0.8-0.1c-0.5,0-1.3,0.1-2.3,0.5c-1,0.4-2.1,1.1-3.1,2.2c-1.1,1.1-2.1,2.6-2.7,4.4
			c-0.7,1.8-1,4-0.8,6.3c0.1,1.2,0.3,2.4,0.7,3.6c0,0.1,0.1,0.3,0.1,0.4l0.2,0.5c0.1,0.3,0.2,0.6,0.4,0.9c0.3,0.6,0.6,1.1,0.9,1.7
			c0.7,1.1,1.7,2,2.8,2.6c1.1,0.6,2.5,0.9,3.8,0.8c1.4-0.1,2.7-0.6,4-1.4c1.2-0.8,2.3-2,3.3-3.3c1.9-2.6,3.1-5.9,3.7-9.4
			c0.2-0.9,0.3-1.7,0.3-2.6c0-0.9,0-1.7-0.2-2.5c-0.3-1.6-1.1-3.1-2.3-4c-1.2-0.9-2.9-1.2-4.4-0.8c-1.5,0.4-2.8,1.5-3.1,2.9
			c-0.4,1.5,0,3.3,0.9,5c0.4,0.9,0.9,1.7,1.6,2.5c0.6,0.8,1.2,1.6,1.9,2.1c0.7,0.6,1.4,0.9,2,0.9c0.6,0,1.2-0.3,1.9-0.9
			c1.3-1.3,2.3-3.2,3.1-5.2c0.9-2,1.6-4.1,2.2-6.2c0.4-1.1,0.7-2.1,1.1-3.3c0.1-0.1,0.1-0.3,0.2-0.5c0-0.1,0.1-0.1,0.1-0.2
			c0.3-0.1-0.3-0.2,1.1-0.7c2.3,0.8,1.1,1.2,1.5,1.2c0,0.1,0,0.2,0,0.3c0,0.5,0,0.7-0.1,1l-0.2,1.7c-0.7,4.5-1.3,9-1.3,13.5
			c0,2.2,0.1,4.5,0.6,6.6c0.3,1,0.7,2,1.4,2.6c0.3,0.3,0.7,0.5,1.1,0.7c0.1,0,0.1,0,0.2,0l0.1,0l0.1,0c0.1,0,0.3,0,0.4,0.1
			c0.2,0,0.5,0,0.8,0c1,0,2-0.3,2.8-0.9c0.8-0.6,1.4-1.5,2-2.5c1-2,1.7-4.2,2.2-6.4c1.1-4.4,2-9,3.3-13.4l0.5-1.6
			c0.1-0.3,0.2-0.5,0.3-0.9c0.1-0.1-0.1,0,0.2-0.3c1.3,0.3,0.5,0.5,0.7,0.5c0,0.1,0,0.2,0,0.3l0,0.4c-0.2,1.1-0.3,2.2-0.5,3.4
			c-0.3,2.2-0.6,4.5-0.8,6.7c-0.2,2.2-0.3,4.4-0.3,6.6c0,2.2,0.2,4.3,0.8,6.2c0.3,0.9,0.9,1.7,1.4,1.9c0.2,0,0.3,0.1,0.5,0.1l0.2,0
			l0.1,0c0.1,0,0.2,0,0.3,0c0.4-0.1,0.8-0.2,1.2-0.4c1.6-0.9,2.8-2.5,3.7-4.2c1.9-3.5,3-7.4,3.3-11.1c0.1-1.9,0-3.7-0.6-5.2
			c-0.3-0.8-0.7-1.4-1.2-1.9c-0.3-0.2-0.5-0.4-0.9-0.6l-0.1-0.1c0,0-0.1,0,0,0l-0.1,0l-0.3-0.1c-0.2-0.1-0.3-0.1-0.5-0.1
			c-0.1,0-0.3,0-0.2,0c0,0,0.1,0,0.2-0.1c0.1-0.1,0.2-0.2,0.3-0.3c0.1-0.2,0-0.2,0-0.1c0,0.1,0.1,0.2,0.1,0.4
			c0.3,0.6,0.8,1.3,1.4,1.8c1.1,1.2,2.5,2.1,3.9,2.6c1.4,0.5,2.9,0.6,4.2,0.2c1.3-0.4,2.5-1.3,3.4-2.4c0.5-0.6,0.9-1.1,1.2-1.8
			c0.4-0.6,0.6-1.2,1.2-2.1c0.1-0.1,0.1-0.1,0.2-0.2c0.1-0.1,0.1-0.1,0.3-0.2c0.1-0.1,0.6-0.3,1.1,0.1c0.4,0.3,0.4,0.5,0.4,0.6
			c0,0.1,0,0.2,0.1,0.3c0,0.1,0,0.2,0,0.3c0,0.3,0,0.5-0.1,0.7c-0.1,0.4-0.1,0.8-0.2,1.1c-0.2,0.7-0.3,1.4-0.5,2.1
			c-1.3,5.5-2.2,10.3-2.5,14.3c-0.1,2-0.1,3.8,0.3,5.2c0.2,0.7,0.5,1.3,0.9,1.8c0.4,0.4,0.9,0.7,1.4,0.7c1,0.1,1.8-0.1,2.3-0.3
			c0.5-0.2,0.8-0.3,0.8-0.3c0.1,0,0.2,0,0.2,0.1c0,0.1,0,0.2-0.1,0.2l0,0c0,0-0.3,0.1-0.8,0.4c-0.5,0.2-1.3,0.6-2.5,0.5
			c-0.6,0-1.3-0.3-1.8-0.8c-0.5-0.5-0.9-1.2-1.2-2c-0.5-1.6-0.7-3.5-0.7-5.5c0-4.1,0.8-9.1,1.8-14.6c0.1-0.7,0.3-1.4,0.4-2.1
			c0.1-0.4,0.1-0.7,0.2-1c0-0.2,0-0.3,0-0.4c0,0,0,0,0,0c0,0,0,0,0,0.1c0,0.1,0,0.2,0.4,0.5c0.4,0.3,0.9,0.1,1,0.1
			c0.2-0.1,0.1-0.1,0.2-0.1c0,0,0,0,0,0c-0.3,0.4-0.6,1.2-1,1.9c-0.4,0.7-0.8,1.4-1.4,2.1c-1.1,1.3-2.5,2.6-4.4,3.2
			c-1.9,0.6-4,0.5-5.8-0.1c-1.8-0.7-3.5-1.8-4.9-3.2c-0.7-0.7-1.4-1.5-1.9-2.5c-0.1-0.3-0.2-0.6-0.3-0.9c-0.1-0.4-0.2-0.8,0.1-1.5
			c0.1-0.3,0.4-0.7,0.7-0.8c0.3-0.2,0.6-0.3,0.8-0.3c0.5-0.1,0.8,0,1.2,0c0.3,0.1,0.6,0.1,0.9,0.2l0.3,0.1l0.1,0l0.1,0.1l0.2,0.1
			c0.5,0.3,1.1,0.6,1.5,1c0.9,0.8,1.5,1.8,1.9,2.9c0.8,2.1,0.9,4.3,0.8,6.4c-0.1,2.1-0.6,4.2-1.2,6.2c-0.7,2-1.5,4-2.7,5.9
			c-0.6,0.9-1.2,1.9-2,2.7c-0.8,0.8-1.7,1.6-2.8,2.2c-0.6,0.3-1.2,0.5-1.8,0.6c-0.2,0-0.3,0-0.5,0l-0.3,0l-0.2,0
			c-0.3,0-0.7-0.1-1.1-0.2c-0.7-0.3-1.3-0.8-1.6-1.4c-0.4-0.6-0.6-1.1-0.8-1.7c-0.7-2.3-0.7-4.5-0.6-6.8c0.1-2.2,0.3-4.5,0.6-6.7
			c0.3-2.2,0.6-4.5,1-6.7c0.2-1.1,0.3-2.2,0.5-3.3l0-0.4c0-0.1,0-0.1,0-0.2c0.2,0-0.6,0,0.7,0.3c0.2-0.2,0.1-0.1,0.1-0.1
			c-0.1,0.2-0.2,0.5-0.3,0.7l-0.5,1.6c-1.3,4.3-2.2,8.9-3.2,13.4c-0.5,2.3-1.1,4.5-2.1,6.7c-0.5,1.1-1.2,2.2-2.2,3
			c-1,0.9-2.3,1.3-3.6,1.4c-0.3,0-0.6,0-1,0c-0.2,0-0.3,0-0.5,0l-0.1,0l-0.1,0c-0.1,0-0.2,0-0.3-0.1c-0.7-0.2-1.4-0.5-1.9-1
			c-1.1-0.9-1.6-2.2-2-3.3c-0.8-2.4-0.9-4.8-1-7.1c-0.1-4.7,0.4-9.4,0.9-13.9l0.2-1.7c0-0.3,0-0.6,0-0.7c0,0,0,0,0,0.1
			c0.3,0-0.8,0.3,1.4,1.1c1.3-0.5,0.7-0.5,0.9-0.5c0,0,0,0,0,0c0,0.1-0.1,0.2-0.1,0.3c-0.4,0.9-0.7,2.1-1,3.1
			c-0.7,2.2-1.4,4.4-2.2,6.5c-0.4,1.1-0.9,2.1-1.5,3.2c-0.6,1-1.3,2.1-2.2,3c-0.5,0.5-1,0.9-1.7,1.2c-0.7,0.3-1.5,0.6-2.3,0.6
			c-0.8,0-1.6-0.2-2.2-0.5c-0.7-0.3-1.2-0.7-1.7-1.1c-1-0.8-1.8-1.7-2.5-2.7c-0.7-0.9-1.3-1.9-1.8-2.9c-0.5-1-1-2.2-1.2-3.4
			c-0.2-1.2-0.3-2.5,0.1-3.8c0.3-1.3,1-2.5,2-3.4c1-0.9,2.2-1.5,3.4-1.8c2.4-0.6,5.1-0.1,7.1,1.4c1,0.7,1.8,1.7,2.4,2.7
			c0.6,1,0.9,2.1,1.1,3.2c0.4,2.2,0.2,4.3-0.2,6.2c-0.8,3.8-2.2,7.5-4.4,10.5c-1.1,1.5-2.5,2.8-4.1,3.8c-1.6,1-3.4,1.6-5.2,1.7
			c-1.8,0.1-3.6-0.4-5-1.3c-1.5-0.9-2.6-2.1-3.4-3.4c-0.4-0.7-0.7-1.3-1-2c-0.1-0.3-0.3-0.7-0.4-1l-0.1-0.5
			c-0.1-0.2-0.1-0.3-0.1-0.5c-0.3-1.3-0.5-2.7-0.6-3.9c-0.1-2.6,0.4-4.9,1.3-6.8c0.9-1.9,2.1-3.4,3.3-4.5c1.2-1.1,2.4-1.8,3.5-2.1
			c1.1-0.4,2-0.4,2.5-0.3c0.6,0.1,0.8,0.2,0.9,0.2c0.1,0,0.1,0.1,0.1,0.2C-919.2,401-919.2,401.1-919.3,401.1z"/>
	</g>
	
		<text transform="matrix(1 0 0 1 -931.5145 453.9396)" style="display:inline;fill:#630D30; font-family:'Lobster1.4'; font-size:16.8589px;">Vos envies, vos idées</text>
	<g class="st1">
		<path class="st3" d="M-849.7,277.6"/>
	</g>
	<g class="st1">
		<g>
			<path class="st4" d="M-1001.7,435.9c0,0,0.1-0.4,0.4-1.3c0.2-0.9,0.6-2.2,0.9-3.9c0.3-1.7,0.5-3.8,0.5-6.3c0-2.5-0.4-5.4-1.1-8.5
				c-0.7-3.1-1.9-6.5-3.4-10.1c-1.5-3.6-3.5-7.4-5.5-11.4c-2.1-4-4.4-8.3-6.5-13.1c-2-4.7-3.9-10-4.2-15.9
				c-0.4-5.8,1.1-12.1,4.5-17.4c3.4-5.3,8.4-9.6,14.2-12.7c5.8-3,12.4-4.9,19.2-5.4c3.4-0.3,6.9-0.1,10.3,0.4
				c3.4,0.5,6.9,1.5,10.1,2.9c3.2,1.5,6.3,3.5,8.8,6.1c2.5,2.6,4.5,5.7,5.9,9.2c1.4,3.4,2.1,7.1,2.3,10.8c0.2,3.7-0.1,7.5-0.7,11.1
				c-1.1,7.3-2.7,14.7-5.7,21.7c-1.5,3.5-3.4,6.8-5.2,10.1c-0.9,1.6-1.7,3.2-2.3,4.9c-0.6,1.7-1,3.4-1.2,5.2
				c-0.4,3.5-0.1,7.2,0.5,10.8c0.2,1.8,0.6,3.5,1.3,5c0.7,1.5,1.8,2.9,3.1,3.8c1.3,1,2.8,1.6,4.4,1.6c1.6,0.1,3.1-0.4,4.5-1.3
				c1.4-0.9,2.6-2.1,3.6-3.4c1-1.4,1.8-2.9,2.5-4.5c1.4-3.2,2.2-6.7,2.8-10.2c0.6-3.5,0.8-7.1,0.9-10.6c0.1-3.5,0-7.2,0-10.7l0-0.7
				v-0.2c1.4,0-3.2-0.2,3.2,0l0,0.3l0,1.3c0,0.9-0.1,1.8-0.1,2.7c-0.1,1.8-0.2,3.5-0.3,5.3c-0.9,14.1-2.4,27.6-4.8,40.3
				c-1.2,6.4-2.6,12.5-4.3,18.3c-1.7,5.9-3.7,11.4-6.2,16.5c-1.3,2.6-2.6,5-4.2,7.2c-1.5,2.2-3,4.4-4.6,6.4
				c-3.1,4.1-6.4,7.8-10.2,10.5c-1.9,1.4-3.9,2.5-6.2,2.9c-1.1,0.2-2.3,0.2-3.4-0.1c-1.1-0.3-2.1-0.9-2.8-1.6
				c-1.5-1.5-2.3-3.4-2.7-5.2c-0.4-1.8-0.5-3.6-0.3-5.3c0.3-3.3,1.3-6.2,2.6-8.4c1.3-2.2,3.1-3.7,4.6-4.6c1.6-0.9,2.9-1.2,3.8-1.3
				c0.5-0.1,0.8-0.1,1-0.1c0.2,0,0.4,0,0.4,0c0.1,0,0.2,0.1,0.2,0.1c0,0.1-0.1,0.2-0.1,0.2h0c0,0-0.1,0-0.3,0c-0.2,0-0.6,0-1,0.1
				c-0.9,0.2-2.2,0.5-3.7,1.4c-1.5,0.9-3.1,2.4-4.3,4.6c-1.2,2.2-2.2,5-2.3,8.2c-0.1,1.6,0,3.3,0.4,5c0.4,1.7,1.2,3.4,2.5,4.7
				c0.7,0.6,1.5,1.1,2.4,1.3c0.9,0.2,1.9,0.2,2.9,0c2-0.4,3.9-1.5,5.6-2.8c3.6-2.7,6.7-6.4,9.8-10.4c1.5-2,3-4.2,4.4-6.4
				c1.4-2.2,2.7-4.6,3.8-7.1c4.5-10.1,7.5-21.9,9.6-34.5c2.1-12.6,3.6-26.1,4.3-40c0.1-1.7,0.2-3.5,0.3-5.3c0-0.9,0.1-1.8,0.1-2.6
				l0-1.3l0-0.4c6.3,0.1,1.8,0.2,3.2,0.2v0.2l0,0.7c0,3.6,0.1,7.1,0,10.8c-0.1,3.7-0.4,7.4-1,11c-0.6,3.7-1.5,7.4-3.1,10.9
				c-0.8,1.8-1.7,3.5-2.9,5.1c-1.2,1.6-2.6,3.1-4.4,4.2c-1.8,1.1-3.9,1.7-6.1,1.6c-2.2-0.1-4.3-0.9-5.9-2.2c-1.7-1.3-3-3-3.8-4.9
				c-0.9-1.8-1.3-3.9-1.5-5.8c-0.5-3.8-0.8-7.6-0.3-11.5c0.3-1.9,0.7-3.9,1.5-5.7c0.7-1.8,1.6-3.5,2.6-5.2c1.9-3.3,3.8-6.4,5.2-9.8
				c3-6.7,4.8-13.9,6-21.1c0.7-3.6,1.1-7.2,0.9-10.8c-0.1-3.6-0.7-7.1-1.9-10.5c-1.2-3.3-3.1-6.4-5.6-8.9c-2.4-2.5-5.3-4.5-8.5-6
				c-6.3-2.9-13.3-3.6-20-3c-6.6,0.7-13,2.7-18.5,5.8c-5.5,3.1-10.1,7.4-13.1,12.4c-1.5,2.5-2.6,5.2-3.2,7.9
				c-0.6,2.7-0.8,5.5-0.7,8.2c0.1,1.3,0.2,2.7,0.5,4c0.2,1.3,0.5,2.6,0.9,3.8c0.7,2.5,1.6,4.9,2.6,7.2c2,4.6,4.2,9,6.2,13.1
				c4.1,8.2,7.1,15.7,8.3,22.3c1.3,6.6,0.6,11.9-0.2,15.3c-0.4,1.7-0.9,3-1.2,3.9c-0.3,0.8-0.5,1.3-0.5,1.3c0,0.1-0.1,0.1-0.2,0.1
				C-1001.7,436.1-1001.7,436-1001.7,435.9z"/>
		</g>
		<g>
			<path class="st4" d="M-959.9,427.2c-27.3-9.4-41.7,8.9-41.7,8.9S-978.2,448-959.9,427.2z"/>
		</g>
		<g>
			<path class="st4" d="M-994.5,402.8c0,0-0.3-0.6-0.8-1.6c-0.5-1.1-1.2-2.6-2.1-4.7c-0.9-2-1.9-4.5-3-7.4c-1.1-2.9-2.2-6.2-3.2-9.9
				c-1-3.7-1.9-7.7-2.4-12.1c-0.5-4.3-0.5-9,0.2-13.7c0.7-4.7,2.1-9.6,4.9-13.8c2.7-4.2,6.9-7.6,12-9.2c1.2-0.4,2.6-0.6,3.9-0.7
				c1.3-0.1,2.6-0.1,3.9,0c2.6,0.2,5.1,0.6,7.6,1.4c2.4,0.8,4.8,2,6.8,3.6c2,1.6,3.7,3.5,5,5.6c2.6,4.3,3.5,9.1,3.6,13.5
				c0.2,4.5-0.5,8.6-1.2,12.3c-0.8,3.7-1.8,7.1-2.8,10c-1,2.9-1.9,5.4-2.8,7.5c-0.9,2-1.6,3.6-2.1,4.7c-0.5,1.1-0.8,1.6-0.8,1.6
				l-0.2-0.1c0,0,0.2-0.6,0.6-1.7c0.4-1.1,1-2.7,1.7-4.8c0.7-2.1,1.5-4.6,2.3-7.6c0.8-2.9,1.6-6.3,2.2-10c0.6-3.7,1-7.7,0.8-11.9
				c-0.2-4.2-1.1-8.6-3.3-12.4c-1.1-1.9-2.6-3.7-4.4-5.1c-1.8-1.4-3.9-2.6-6.1-3.4c-2.2-0.8-4.6-1.4-7-1.6c-2.4-0.2-4.9-0.3-7.2,0.3
				c-4.7,1.1-9,4.2-11.7,8.2c-1.4,2-2.4,4.3-3.1,6.5c-0.3,1.1-0.6,2.3-0.8,3.5c-0.2,1.2-0.3,2.3-0.4,3.5c-0.4,4.7,0.1,9.2,0.7,13.4
				c0.3,2.1,0.6,4.2,1.1,6.1c0.4,2,0.8,3.9,1.3,5.7c0.9,3.6,1.9,6.9,2.7,9.9c0.9,2.9,1.7,5.4,2.4,7.5c0.7,2.1,1.3,3.7,1.7,4.8
				c0.4,1.1,0.6,1.7,0.6,1.7L-994.5,402.8z"/>
		</g>
		<g>
			<path class="st4" d="M-999.5,428.5c0,0,1.8-1.9,5.1-4c0.8-0.5,1.7-1.1,2.7-1.6c1-0.5,2-1.1,3.2-1.5c1.1-0.5,2.3-0.9,3.5-1.3
				c1.2-0.4,2.5-0.7,3.8-0.9c1.3-0.2,2.6-0.4,3.9-0.5c0.6,0,1.3,0,1.9,0c0.6,0,1.3,0.1,1.9,0.1c0.6,0.1,1.2,0.1,1.8,0.2
				c0.6,0.1,1.2,0.2,1.7,0.3c0.5,0.1,1.1,0.3,1.6,0.4c0.5,0.1,1,0.3,1.5,0.5c0.9,0.3,1.8,0.7,2.5,1c0.7,0.4,1.3,0.6,1.8,0.9
				c1,0.6,1.5,0.9,1.5,0.9s-0.6-0.2-1.6-0.7c-0.5-0.2-1.2-0.4-1.9-0.7c-0.4-0.1-0.8-0.2-1.2-0.3c-0.4-0.1-0.9-0.3-1.3-0.4
				c-0.5-0.1-0.9-0.2-1.4-0.3c-0.5-0.1-1-0.2-1.6-0.3c-0.5-0.1-1.1-0.1-1.7-0.2c-0.6,0-1.1-0.1-1.7-0.1c-0.6,0-1.2,0-1.8,0
				c-0.6,0-1.2,0.1-1.8,0.1c-1.2,0.1-2.5,0.2-3.7,0.5c-1.2,0.2-2.5,0.5-3.7,0.8c-1.2,0.4-2.4,0.7-3.5,1.1c-2.2,0.8-4.3,1.8-6,2.6
				C-997.4,427-999.5,428.5-999.5,428.5z"/>
		</g>
		<g>
			<path class="st4" d="M-986,331.5c0,0,0.6,1.1,1.5,3.1c0.4,1,1,2.2,1.4,3.7c0.3,0.7,0.5,1.5,0.8,2.3c0.3,0.8,0.5,1.7,0.8,2.6
				c0.3,0.9,0.5,1.9,0.8,2.8c0.2,1,0.5,2,0.7,3.1c0.4,2.1,0.9,4.3,1.2,6.7c0.2,1.2,0.4,2.3,0.5,3.6c0.1,1.2,0.2,2.4,0.3,3.7
				c0,0.6,0.1,1.2,0.1,1.9c0,0.6,0,1.2,0,1.9c0,1.3,0.1,2.5,0.1,3.8c0,2.5-0.2,5-0.3,7.5c-0.2,2.5-0.5,4.9-0.8,7.2
				c-0.4,2.3-0.8,4.6-1.2,6.7c-0.1,0.5-0.2,1.1-0.3,1.6c-0.1,0.5-0.3,1-0.4,1.5c-0.3,1-0.5,1.9-0.7,2.8c-0.5,1.8-0.9,3.5-1.4,4.9
				c-0.5,1.4-0.9,2.7-1.3,3.7c-0.7,2.1-1.1,3.2-1.1,3.2s0.3-1.2,0.9-3.3c0.3-1.1,0.6-2.3,1-3.8c0.4-1.5,0.7-3.2,1.1-5
				c0.2-0.9,0.4-1.9,0.6-2.8c0.1-0.5,0.2-1,0.3-1.5c0.1-0.5,0.2-1,0.2-1.6c0.3-2.1,0.6-4.3,1-6.6c0.2-2.3,0.4-4.7,0.6-7.1
				c0.1-2.4,0.2-4.9,0.2-7.4c0-1.2,0-2.5-0.1-3.7c0-0.6,0-1.2,0-1.8c0-0.6-0.1-1.2-0.1-1.8c-0.1-1.2-0.2-2.4-0.3-3.6
				c-0.1-1.2-0.3-2.4-0.4-3.5c-0.2-2.3-0.6-4.5-1-6.6c-0.2-1.1-0.4-2.1-0.6-3c-0.2-1-0.4-1.9-0.6-2.8c-0.2-0.9-0.4-1.8-0.7-2.6
				c-0.2-0.8-0.5-1.6-0.7-2.3c-0.4-1.5-0.9-2.7-1.2-3.7c-0.4-1-0.7-1.8-0.9-2.4C-985.8,331.8-986,331.5-986,331.5z"/>
		</g>
	</g>
	<g class="st1">
		<path class="st2" d="M-930.7,359.8c0,0,0-0.1,0-0.3c0-0.2-0.1-0.4-0.3-0.7c-0.4-0.5-1.7-0.6-2.9,0c-1.3,0.6-2.7,1.8-3.9,3.5
			c-1.2,1.7-2.2,4-2.8,6.6c-0.6,2.6-1,5.7-0.5,8.8c0.1,0.8,0.3,1.6,0.6,2.3c0.3,0.7,0.6,1.5,1.1,1.9c0.5,0.5,1,0.6,1.6,0.4
			c0.6-0.2,1.3-0.8,1.9-1.4c1.2-1.3,2.1-3,3-4.8c0.9-1.8,1.6-3.7,2.4-5.7c0.8-2,1.5-4.1,2.3-6.2c0.4-1.1,0.7-2.1,1-3.2
			c0.2-0.5,0.3-1.1,0.4-1.6c0.1-0.3,0.1-0.5,0.1-0.7c0-0.1,0-0.2,0-0.2c0,0,0,0,0,0.1c0,0.1,0,0.1,0.2,0.3c0.1,0.1,0.3,0.3,0.5,0.4
			c0.3,0.1,0.4,0.1,0.6,0c0.2-0.1,0.2-0.1,0.2-0.1c0.1,0,0.1,0,0.1,0c0,0,0,0,0,0c0,0-0.1,0.1-0.2,0.2c-0.1,0.2-0.3,0.4-0.4,0.6
			c-0.1,0.2-0.3,0.5-0.4,0.7c-0.1,0.2-0.2,0.5-0.3,0.8c-0.4,1-0.7,2.2-1,3.3c-0.6,2.3-1.1,4.7-1.4,7.2c-0.3,2.5-0.5,5-0.3,7.4
			c0.1,0.6,0.2,1.2,0.4,1.6c0.1,0.5,0.4,0.9,0.6,1.1c0.2,0.2,0.4,0.2,0.7,0.3c0.3,0,0.8-0.2,1.3-0.4c0.5-0.3,1-0.5,1.5-0.9l0.4-0.2
			l0.4-0.3c0.3-0.2,0.5-0.4,0.7-0.6c0.9-0.9,1.8-1.8,2.7-2.9c1.7-2.1,3.3-4.3,4.8-6.7c3-4.7,5.7-9.8,8.3-15.1
			c2.5-5.3,4.9-10.8,6.8-16.5c0.9-2.8,1.8-5.8,2.2-8.7c0.1-0.7,0.2-1.4,0.2-2.1c0-0.7,0-1.4-0.2-1.8c-0.2-0.5-0.3-0.6-0.4-0.5
			c0.1,0,0,0-0.1,0.1c-0.2,0.1-0.3,0.3-0.5,0.6c-0.7,1.1-1.2,2.5-1.7,3.9c-0.5,1.4-0.8,2.9-1.2,4.4c-0.7,3-1.2,6.1-1.7,9.2
			c-1,6.2-1.8,12.4-2.6,18.7c-0.8,6.3-1.3,12.6-2.2,18.8l-0.1,0.6c0,0.2-0.1,0.4-0.1,0.6c-0.1,0.2-0.1,0.4-0.2,0.7l-0.1,0.2
			c0,0.1-0.1,0.1-0.2,0.2c-0.1,0.1-0.2,0.2-0.4,0.2c-0.2,0.1-0.4,0-0.5,0c-0.1-0.1-0.2-0.1-0.3-0.2c0-0.1-0.1-0.1-0.1-0.2
			c-0.1-0.1-0.1-0.2-0.2-0.3c-0.1-0.2-0.2-0.4-0.2-0.6c-0.1-0.4-0.2-0.8-0.3-1.2c-0.3-1.6-0.4-3.2-0.4-4.8c0-3.2,0.4-6.4,1.4-9.4
			c1-3,2.5-5.9,4.9-8c2.4-2.2,5.5-3.4,8.6-3.7c1.6-0.2,3.4,0.1,4.7,1.4c0.6,0.7,0.9,1.6,0.9,2.5c0,0.9-0.3,1.7-0.6,2.4
			c-0.7,1.5-1.7,2.7-2.7,3.8c-1,1.1-2.2,2.2-3.3,3.1c-1.1,1-2.3,1.9-3.5,2.8c-1.2,0.9-2.4,1.7-3.7,2.5c-1.2,0.8-2.5,1.6-3.9,2.2
			c-0.7,0.3-1.4,0.6-2.4,0.7c-0.1,0-0.3,0-0.4,0c-0.2,0-0.3,0-0.5-0.1c-0.2,0-0.4-0.2-0.6-0.3c-0.2-0.2-0.4-0.4-0.5-0.7
			c-0.1-0.5-0.1-0.9,0-1.1c0.1-0.3,0.2-0.5,0.3-0.7c0.4-0.8,1-1.4,1.5-1.9c0.6-0.6,1.1-1,1.8-1.5c1.3-0.9,2.6-1.6,4.1-2
			c1.5-0.4,3.2-0.5,4.7-0.1c1.6,0.4,3,1.3,4.1,2.4c0.6,0.5,1,1.1,1.5,1.7l0.6,0.9c0.2,0.3,0.4,0.6,0.6,0.8c0.7,1,1.5,1.9,2.5,2.5
			c0.9,0.7,1.9,1.1,3,1.2c1,0.1,2.1-0.1,3.2-0.5c2.1-0.8,3.9-2.4,5.6-4.1c1.6-1.7,3-3.6,4.3-5.6c0.6-1,1.3-2,1.6-2.9
			c0.4-0.9,0.6-1.9,0.5-2.7c0-0.4-0.2-0.8-0.4-1.1c-0.2-0.3-0.5-0.6-0.8-0.9c-0.6-0.5-1.5-0.7-2.4-0.7c-1.8,0-3.6,0.8-5.1,1.9
			c-1.5,1.1-2.7,2.6-3.6,4.2c-1.8,3.1-2.4,6.7-1.6,9.7c0.4,1.5,1.2,2.8,2.2,3.7c1,0.9,2.3,1.4,3.6,1.6c2.6,0.4,5-0.3,6.9-1.1
			c2-0.8,3.5-1.7,4.8-2.5c1.2-0.8,2.2-1.4,2.8-1.9c0.6-0.5,0.9-0.7,0.9-0.7l0.2,0.2c0,0-0.3,0.3-0.9,0.8c-0.6,0.5-1.5,1.2-2.7,2.1
			c-1.2,0.9-2.8,1.9-4.8,2.8c-2,0.9-4.5,1.8-7.4,1.5c-1.5-0.2-3-0.7-4.3-1.8c-1.3-1.1-2.3-2.6-2.8-4.3c-0.6-1.7-0.6-3.6-0.4-5.5
			c0.1-0.9,0.3-1.9,0.7-2.8c0.1-0.5,0.3-0.9,0.5-1.4c0.2-0.5,0.4-0.8,0.6-1.3c1-1.8,2.2-3.5,4-4.9c1.7-1.4,3.9-2.5,6.4-2.5
			c1.2,0,2.6,0.2,3.8,1.1c1.2,0.8,2,2.2,2.2,3.6c0.2,1.4-0.1,2.8-0.6,4c-0.5,1.3-1.1,2.2-1.8,3.3c-1.3,2.1-2.7,4.1-4.5,6
			c-1.8,1.9-3.8,3.7-6.5,4.8c-1.3,0.5-2.9,0.8-4.4,0.7c-1.6-0.2-3-0.8-4.2-1.7c-1.2-0.9-2.2-2-3.1-3.2c-0.2-0.3-0.4-0.6-0.6-0.9
			l-0.5-0.8c-0.3-0.5-0.7-1-1.1-1.4c-0.8-0.8-1.8-1.5-2.9-1.7c-1.1-0.3-2.3-0.3-3.5,0.1c-1.2,0.3-2.4,0.8-3.4,1.6
			c-0.5,0.4-1.1,0.8-1.5,1.2c-0.5,0.4-0.9,0.9-1.2,1.4c-0.1,0.1-0.1,0.2-0.1,0.3c0,0.1,0,0.1,0-0.1c0-0.1-0.1-0.2-0.2-0.3
			c-0.1-0.1-0.1-0.1-0.2-0.1c-0.1,0,0,0,0,0l0.1,0c0.5,0,1.1-0.3,1.7-0.5c1.2-0.5,2.5-1.2,3.7-1.9c2.4-1.5,4.9-3.1,7.2-4.9
			c1.1-0.9,2.2-1.9,3.3-2.9c1-1,1.9-2.2,2.6-3.4c0.3-0.6,0.5-1.3,0.6-1.9c0-0.6-0.1-1.2-0.5-1.7c-0.4-0.5-1-0.8-1.6-1
			c-0.7-0.2-1.3-0.2-2.1-0.1c-3,0.2-5.8,1.3-8.1,3.3c-2.2,2-3.8,4.7-4.7,7.6c-0.9,2.9-1.3,6-1.3,9.1c0,1.5,0.1,3.1,0.4,4.6
			c0.1,0.4,0.2,0.7,0.3,1.1c0.1,0.2,0.1,0.3,0.2,0.5c0,0.1,0.2,0.3,0.1,0.2c-0.1,0-0.1,0-0.2,0c-0.1,0.1-0.1,0-0.1,0.1c0,0,0,0,0,0
			l0-0.1c0.1-0.1,0.1-0.3,0.1-0.4c0-0.2,0.1-0.4,0.1-0.6l0.1-0.6c0.7-6.2,1.1-12.6,1.7-18.9c0.6-6.3,1.2-12.6,2-18.9
			c0.4-3.1,0.9-6.3,1.6-9.4c0.3-1.6,0.7-3.1,1.1-4.7c0.2-0.8,0.5-1.5,0.8-2.3c0.3-0.8,0.6-1.5,1.1-2.3c0.3-0.4,0.5-0.8,1-1.2
			c0.5-0.4,1-0.8,2-0.8c0.1,0,0.2,0,0.4,0c0.1,0,0.2,0,0.2,0l0.1,0c-0.1,0,0.2,0.1,0.3,0.1c0.2,0.1,0.3,0.2,0.5,0.3
			c0.1,0.1,0.3,0.2,0.4,0.3c0.5,0.5,0.8,1,0.9,1.5c0.3,1,0.4,1.9,0.4,2.7c0,0.9-0.1,1.7-0.2,2.5c-0.4,3.2-1.3,6.2-2.2,9.2
			c-1.9,5.9-4.2,11.5-6.7,16.9c-2.5,5.4-5.3,10.6-8.4,15.5c-1.6,2.4-3.2,4.8-5,7c-0.9,1.1-1.9,2.2-3,3.2c-0.3,0.2-0.6,0.5-0.9,0.7
			l-0.4,0.3c-0.2,0.2-0.3,0.2-0.5,0.3c-0.6,0.4-1.3,0.8-2,1.2c-0.8,0.3-1.5,0.6-2.6,0.6c-0.5,0-1.1-0.1-1.6-0.3
			c-0.3-0.1-0.5-0.2-0.7-0.4c-0.2-0.2-0.4-0.3-0.6-0.5c-0.7-0.7-1.1-1.6-1.3-2.3c-0.3-0.8-0.4-1.5-0.5-2.2c-0.3-2.9,0-5.6,0.4-8.2
			c0.4-2.6,1-5.1,1.7-7.5c0.4-1.2,0.7-2.4,1.2-3.6c0.1-0.3,0.2-0.5,0.4-0.9c0.2-0.3,0.3-0.6,0.5-0.9c0.2-0.3,0.4-0.6,0.6-0.9
			c0.1-0.1,0.3-0.3,0.5-0.5l0.2-0.1c0,0,0.1-0.1,0.3-0.2c0.1-0.1,0.2-0.1,0.4-0.2c0.2,0,0.4-0.1,0.8,0c0.4,0.1,0.6,0.3,0.7,0.5
			c0.2,0.3,0.2,0.3,0.3,0.5c0.1,0.3,0.1,0.4,0.1,0.6c0,0.3,0,0.5,0,0.7c0,0.4-0.1,0.7-0.2,1c-0.1,0.6-0.3,1.2-0.5,1.8
			c-0.4,1.1-0.7,2.2-1.1,3.3c-0.8,2.2-1.6,4.2-2.4,6.2c-0.8,2-1.7,4-2.6,5.8c-1,1.9-2,3.6-3.5,5.2c-0.7,0.7-1.6,1.5-2.7,1.9
			c-0.6,0.2-1.3,0.2-1.9,0c-0.6-0.2-1.1-0.6-1.5-1c-0.8-0.8-1.2-1.7-1.4-2.6c-0.3-0.9-0.4-1.8-0.5-2.6c-0.2-1.7-0.1-3.4,0-5
			c0.2-1.5,0.5-3,0.9-4.4c0.8-2.7,1.9-5,3.2-6.8c1.3-1.8,2.9-3,4.3-3.5c1.4-0.6,2.8-0.5,3.4,0.3c0.3,0.3,0.3,0.7,0.4,0.9
			c0,0.2,0,0.3,0,0.3L-930.7,359.8z"/>
	</g>
</g>
<path class="st5" d="M248,10c-22.8-16.2-53.7-9.8-70.5,5.7c-1.7,1.6-1.8,4.2-0.2,5.9c1.6,1.7,4.2,1.8,5.9,0.2
	c14-12.9,40.9-18.5,60-5c15.4,10.9,45.2,49.8-9.4,176c-3.8,8.7-10.8,26.8-15.5,50.1c-10.4-11.9-34-20.6-71.7-17.8
	c-32,2.3-63.7,13.7-74.8,34.2c-6.7-24.3-17.9-52.8-33.6-75.4C5.8,137.3-0.8,85.2,21.7,54.1c15-20.7,40.4-27.6,69.8-18.9
	c2.2,0.7,4.5-0.6,5.2-2.8c0.7-2.2-0.6-4.5-2.8-5.2c-33-9.8-61.8-1.8-79,22c-28.4,39.3-12.2,98.3,16.4,139.5
	c18.8,27.1,30.9,62.8,36.3,88.6c0,0,0,0,0,0c0,0.4,0.1,0.8,0.3,1.2c1.6,8,2.6,14.9,2.9,20.3c-0.1,1.8-0.1,3.5,0.1,5.3
	c0,0,0,0.1,0,0.1c0,0,0,0.1,0,0.1c2,13.2,20.3,20.5,49.8,20.5c4.5,0,9.3-0.2,14.4-0.5c33.4-2.3,86.3-14.8,86.6-38.2c0,0,0-0.1,0-0.1
	c0.2-9.6,1-18.9,2.3-27.6c0.4-0.7,0.5-1.5,0.4-2.3c0-0.1,0-0.2,0-0.3c4.4-27.9,12.8-49.9,17-59.7C296.4,69.1,269.1,25,248,10z
	 M75.9,276.7c-1.1-26.2,36.2-40.8,71.2-43.4c41.7-3.1,66.1,9.1,68.8,22.5c-0.6,3.9-1.1,8-1.5,12.1c-2.6-2.7-5.8-5-9.6-7
	c-27.7-14.3-88.1-7.5-117.4,13.2c-4.2,2.9-7.5,6.1-10.2,9.4C76.8,281.3,76.4,279.1,75.9,276.7z M134.5,316
	c-31,2.2-53.7-3.1-55.3-12.8c0-1.3,0-2.7-0.1-4.2c0.7-6.3,5-12.3,13.1-18c17.3-12.2,47.2-19.3,72.9-19.3c14.1,0,27,2.1,35.9,6.7
	c8.2,4.2,12.4,10.2,12.4,17.6C213.4,298.8,175.8,313.1,134.5,316z"/>
<path class="st6" d="M223.1,196.3c-1.6-1.3-3.9-1.1-5.2,0.4c-13.5,15.7-18.9,15.5-19.9,15.3c-0.4-0.1-0.7-0.3-1-0.6
	c-1.1-1-1.3-2.8-0.7-4.2c39.6-86.6,22.3-141.2,13-160.9c-8.8-18.6-22.2-31.3-36.5-34.9c-14.6-3.6-25.4,5.3-37.6,21.3
	c-1.4,1.8-4.1,2-5.7,0.4c-8.2-8.2-16.6-12.1-25-11.5c-12.8,0.9-20.7,11.9-21.9,13.7c-3.8,4.7-51.6,67.5,7.1,189.1
	c0.7,1.5,2.2,2.4,3.7,2.4c0.6,0,1.2-0.1,1.8-0.4c2.1-1,2.9-3.5,1.9-5.5C39.8,102.4,88.5,41.3,89,40.7c0.1-0.1,0.2-0.3,0.3-0.4
	c0.1-0.1,6.3-9.5,15.6-10.2c6.9-0.5,14.1,3.7,21.6,12.5c1.5,1.7,3.6,2.6,5.9,2.5c2.6-0.1,5-1.4,6.4-3.4
	c13.5-18.7,21.8-24.4,31.6-21.9c12,3,23.3,14,31,30.4c8.9,18.8,24.9,71.4-14.4,156.7c-2.1,4.7,0.7,10.6,4,12.4
	c7.4,4,19.4-1.7,32.7-17.2c1.4-1.6,1.1-4-0.5-5.3L223.1,196.3z"/>
<path class="st5" d="M138,178c-0.7,0-1.4-0.2-2-0.5c-1.6-0.9-2.4-2.9-2-4.7c0.1-0.5,0.3-1,0.6-1.4c1.8-4.6,17.1-47.4-4.1-87.1
	c-1.1-2-0.3-4.5,1.7-5.6c2-1.1,4.5-0.3,5.6,1.7c21.6,40.5,8.6,84.1,4.2,94.3c0,0,0,0,0,0l0,0c-0.5,1.2-0.9,1.9-1.1,2.1
	C140.1,177.6,139,178,138,178z"/>
<path class="st5" d="M35.1,100.4c-2,0-3.7-1.4-4.1-3.4c-3.2-16.9,4-39.3,21.5-47.7c2.1-1,4.6-0.1,5.5,1.9c1,2.1,0.1,4.5-1.9,5.5
	c-13.9,6.7-19.5,24.9-16.9,38.7c0.4,2.3-1.1,4.4-3.3,4.8C35.7,100.4,35.4,100.4,35.1,100.4z"/>
</svg>
